#N canvas 953 0 958 988 10;
#X obj 53 99 vsl 15 128 0 5000 0 0 empty slider input_float 0 -9 0
10 -262144 -1 -1 4802 1;
#X obj 122 237 int 0;
#X obj 173 237 + 1;
#X floatatom 124 291 5 0 0 0 - - -;
#X obj 124 331 t b f;
#X floatatom 62 366 5 0 0 0 - - -;
#X floatatom 250 366 5 0 0 0 - - -;
#X msg 173 196 0;
#N canvas 0 0 450 300 (subpatch) 0;
#X array array2 100 float 5;
#A 0 1726.77 1377.17 1501.97 2027.17 2254.72 2340.16 2167.32 2103.54
1723.62 1437.01 1766.14 1558.27 1223.23 1907.87 2301.97 2398.03 1530.31
2024.02 2306.3 1607.87 1115.75 1850.79 1301.57 1286.61 1335.04 1214.96
1488.58 1781.89 1254.72 2379.53 1405.51 1507.48 2101.57 1768.5 1654.72
2469.69 2095.67 1801.97 1130.71 2447.64 2296.46 974.409 553.15 1382.68
1475.59 1522.44 1716.93 1498.03 1132.68 1448.82 2047.64 2242.52 1883.07
1314.96 1553.15 1516.54 1362.2 1175.98 984.252 1890.55 1890.55 1164.57
1262.6 1262.6 842.126 1029.92 1369.29 2006.3 1685.83 2538.19 2341.73
1676.38 1894.09 2611.02 2675.59 1763.39 1445.67 1653.15 2364.17 2143.31
2204.72 2353.15 2055.51 1312.2 1501.97 1948.43 2305.91 1886.22 1905.12
1659.06 2200.79 2361.42 1666.14 2030.71 1961.81 1799.61 1476.38 1236.22
1614.17 1748.82;
#X coords 0 5000 99 0 600 500 1 0 0;
#X restore 387 -197 graph;
#X obj 122 196 metro 100;
#X obj 62 406 tabwrite array2;
#X obj 130 80 inlet;
#X obj 310 410 tabread array2;
#X msg 342 361 0;
#X obj 168 291 zexy/wrap 99;
#X obj 422 411 tabread array2;
#X obj 549 406 tabread array2;
#X obj 661 407 tabread array2;
#X obj 774 412 tabread array2;
#X obj 886 413 tabread array2;
#X obj 1013 408 tabread array2;
#X obj 1125 409 tabread array2;
#X obj 1247 409 tabread array2;
#X obj 1359 410 tabread array2;
#X msg 454 362 9;
#X msg 581 357 19;
#X msg 693 358 29;
#X msg 806 363 39;
#X msg 918 364 49;
#X msg 1045 359 59;
#X msg 1157 360 69;
#X msg 1279 360 89;
#X msg 1391 361 99;
#X msg 412 538 1726.77 1437.01 1607.87 2379.53 2447.64 1448.82 1890.55
2538.19 1659.06 1748.82;
#N canvas 0 0 450 300 show 0;
#X obj 41 39 inlet;
#X obj 186 36 inlet;
#X obj 41 124 outlet;
#X msg 186 76 set;
#X obj 41 59 list prepend set;
#X obj 41 83 list trim;
#X connect 0 0 4 0;
#X connect 1 0 3 0;
#X connect 3 0 2 0;
#X connect 4 0 5 0;
#X connect 5 0 2 0;
#X restore 412 507 pd show;
#X obj 412 463 pack \$1 \$2 \$3 \$4 \$5 \$6 \$7 \$8 \$9 \$10;
#X obj 705 591 outlet;
#X obj 206 61 inlet;
#X obj 302 61 inlet;
#X obj 250 62 inlet;
#X obj 206 239 s slider;
#X text 207 39 start;
#X text 260 35 stop;
#X text 312 40 reset;
#X text 713 569 Data;
#X floatatom 772 552 5 0 0 0 - - -;
#X obj 772 507 list-mean;
#X floatatom 837 552 5 0 0 0 - - -;
#X obj 837 506 list-minmax;
#X floatatom 900 551 5 0 0 0 - - -;
#X obj 772 591 outlet;
#X text 782 572 Mean;
#X obj 837 591 outlet;
#X text 849 572 Minimum;
#X obj 900 591 outlet;
#X text 911 572 Maximum;
#X obj 1149 514 bng 15 250 50 0 empty empty empty 17 7 0 10 -262144
-1 -1;
#X obj 1126 614 list-map;
#X obj 1292 505 list-mean;
#X floatatom 1360 534 8 0 0 0 - - -;
#X msg 1109 699 5877.78 177.778 177.778 205.444 373.778 266.778;
#N canvas 0 0 450 300 show 0;
#X obj 41 39 inlet;
#X obj 186 36 inlet;
#X obj 41 124 outlet;
#X msg 186 76 set;
#X obj 41 59 list prepend set;
#X obj 41 83 list trim;
#X connect 0 0 4 0;
#X connect 1 0 3 0;
#X connect 3 0 2 0;
#X connect 4 0 5 0;
#X connect 5 0 2 0;
#X restore 1109 668 pd show;
#X obj 1250 589 expr pow($f1 - $f2 \, 2);
#X msg 1094 557 1 3 4 6 9 20 1 1 5;
#X connect 0 0 5 0;
#X connect 1 0 2 0;
#X connect 1 0 3 0;
#X connect 2 0 14 0;
#X connect 3 0 4 0;
#X connect 4 0 5 0;
#X connect 4 0 13 0;
#X connect 4 1 6 0;
#X connect 4 1 24 0;
#X connect 4 1 25 0;
#X connect 4 1 26 0;
#X connect 4 1 27 0;
#X connect 4 1 28 0;
#X connect 4 1 29 0;
#X connect 4 1 30 0;
#X connect 4 1 31 0;
#X connect 4 1 32 0;
#X connect 5 0 10 0;
#X connect 6 0 10 1;
#X connect 7 0 1 1;
#X connect 7 0 40 0;
#X connect 9 0 1 0;
#X connect 11 0 0 0;
#X connect 12 0 35 0;
#X connect 13 0 12 0;
#X connect 14 0 1 1;
#X connect 15 0 35 1;
#X connect 16 0 35 2;
#X connect 17 0 35 3;
#X connect 18 0 35 4;
#X connect 19 0 35 5;
#X connect 20 0 35 6;
#X connect 21 0 35 7;
#X connect 22 0 35 8;
#X connect 23 0 35 9;
#X connect 24 0 15 0;
#X connect 25 0 16 0;
#X connect 26 0 17 0;
#X connect 27 0 18 0;
#X connect 28 0 19 0;
#X connect 29 0 20 0;
#X connect 30 0 21 0;
#X connect 31 0 22 0;
#X connect 32 0 23 0;
#X connect 34 0 33 0;
#X connect 35 0 34 0;
#X connect 35 0 36 0;
#X connect 35 0 48 0;
#X connect 35 0 46 0;
#X connect 37 0 9 0;
#X connect 38 0 7 0;
#X connect 39 0 9 0;
#X connect 39 0 7 0;
#X connect 45 0 50 0;
#X connect 46 0 45 0;
#X connect 47 0 52 0;
#X connect 48 0 47 0;
#X connect 48 1 49 0;
#X connect 49 0 54 0;
#X connect 56 0 63 0;
#X connect 57 0 61 0;
#X connect 57 1 62 0;
#X connect 58 0 59 0;
#X connect 59 0 62 1;
#X connect 61 0 60 0;
#X connect 62 0 57 1;
#X connect 63 0 57 0;
#X connect 63 0 58 0;
#X coords 0 988 1 987 0 0 0;
