#N canvas -883 175 1908 756 10;
#X obj 41 -509 vsl 15 128 0 5000 0 0 empty slider input_float 0 -9
0 10 -262144 -1 -1 0 1;
#X obj 110 -371 int 0;
#X obj 161 -371 + 1;
#X floatatom 112 -317 5 0 0 0 - - -;
#X obj 112 -277 t b f;
#X floatatom 50 -242 5 0 0 0 - - -;
#X floatatom 238 -242 5 0 0 0 - - -;
#X msg 194 -413 0;
#X obj 110 -412 metro 100;
#X obj 118 -528 inlet;
#X msg 330 -247 0;
#X msg 442 -246 9;
#X msg 569 -251 19;
#X msg 681 -250 29;
#X msg 794 -245 39;
#X msg 906 -244 49;
#X msg 1033 -249 59;
#X msg 1145 -248 69;
#X msg 1267 -248 89;
#X msg 1379 -247 99;
#X msg 400 -70 853.937 853.937 853.937 853.937 853.937 853.937 853.937
853.937 853.937 853.937;
#N canvas 0 0 450 300 show 0;
#X obj 41 39 inlet;
#X obj 186 36 inlet;
#X obj 41 124 outlet;
#X msg 186 76 set;
#X obj 41 59 list prepend set;
#X obj 41 83 list trim;
#X connect 0 0 4 0;
#X connect 1 0 3 0;
#X connect 3 0 2 0;
#X connect 4 0 5 0;
#X connect 5 0 2 0;
#X restore 400 -101 pd show;
#X obj 400 -145 pack \$1 \$2 \$3 \$4 \$5 \$6 \$7 \$8 \$9 \$10;
#X obj 693 -17 outlet;
#X obj 194 -547 inlet;
#X obj 290 -547 inlet;
#X obj 238 -546 inlet;
#X obj 194 -369 s slider;
#X text 195 -569 start;
#X text 248 -573 stop;
#X text 300 -568 reset;
#X text 701 -39 Data;
#X obj 757 -140 list-mean;
#X floatatom 1117 -56 5 0 0 0 - - -;
#X obj 1117 -102 list-minmax;
#X floatatom 1180 -56 5 0 0 0 - - -;
#X obj 731 -101 outlet;
#X text 773 -88 Mean;
#X obj 1117 -17 outlet;
#X text 1129 -36 Minimum;
#X obj 1180 -17 outlet;
#X text 1191 -36 Maximum;
#X obj 1490 -115 list-map;
#X obj 1606 -117 expr pow($f1 - $f2 \, 2);
#X obj 1485 -85 list-accum;
#X floatatom 1610 8 5 0 0 0 - - -;
#X obj 1610 47 outlet;
#X obj 50 -202 tabwrite \$1;
#X obj 298 -198 tabread \$1;
#X obj 410 -197 tabread \$1;
#X obj 537 -202 tabread \$1;
#X obj 649 -201 tabread \$1;
#X obj 762 -196 tabread \$1;
#X obj 874 -195 tabread \$1;
#X obj 1001 -200 tabread \$1;
#X obj 1113 -199 tabread \$1;
#X obj 1235 -199 tabread \$1;
#X obj 1347 -198 tabread \$1;
#N canvas 0 0 450 300 (subpatch) 0;
#X array \$1 100 float 5;
#A 0 853.937 853.937 853.937 853.937 853.937 853.937 853.937 853.937
853.937 853.937 853.937 853.937 853.937 853.937 853.937 853.937 853.937
853.937 853.937 853.937 853.937 853.937 853.937 853.937 853.937 853.937
853.937 853.937 853.937 853.937 853.937 853.937 853.937 853.937 853.937
853.937 853.937 853.937 853.937 853.937 853.937 853.937 853.937 853.937
853.937 853.937 853.937 853.937 853.937 853.937 853.937 853.937 853.937
853.937 853.937 853.937 853.937 853.937 853.937 853.937 853.937 853.937
853.937 853.937 853.937 853.937 853.937 853.937 853.937 853.937 853.937
853.937 853.937 853.937 853.937 853.937 853.937 853.937 853.937 853.937
853.937 853.937 853.937 853.937 853.937 853.937 853.937 853.937 853.937
853.937 853.937 853.937 853.937 853.937 853.937 853.937 853.937 853.937
853.937 853.937;
#X coords 0 5000 99 0 500 500 1 0 0;
#X restore 467 -778 graph;
#X obj 156 -317 zexy/wrap 100;
#X text 82 -758 Author: Jack Cheng Ding Han \, University of Sheffield
;
#X text 1621 28 Variance;
#X obj 1604 -93 expr ($f1)/9;
#X obj 1363 -300 outlet;
#X text 1306 -343 Clock Variable;
#X obj 1398 -681 inlet;
#X floatatom 1368 -549 5 0 0 0 - - -;
#X text 1329 -706 Population mean;
#X connect 0 0 5 0;
#X connect 1 0 2 0;
#X connect 1 0 3 0;
#X connect 2 0 59 0;
#X connect 3 0 4 0;
#X connect 3 0 63 0;
#X connect 4 0 5 0;
#X connect 4 0 10 0;
#X connect 4 1 6 0;
#X connect 4 1 11 0;
#X connect 4 1 12 0;
#X connect 4 1 13 0;
#X connect 4 1 14 0;
#X connect 4 1 15 0;
#X connect 4 1 16 0;
#X connect 4 1 17 0;
#X connect 4 1 18 0;
#X connect 4 1 19 0;
#X connect 5 0 47 0;
#X connect 6 0 47 1;
#X connect 7 0 1 1;
#X connect 7 0 27 0;
#X connect 8 0 1 0;
#X connect 9 0 0 0;
#X connect 10 0 48 0;
#X connect 11 0 49 0;
#X connect 12 0 50 0;
#X connect 13 0 51 0;
#X connect 14 0 52 0;
#X connect 15 0 53 0;
#X connect 16 0 54 0;
#X connect 17 0 55 0;
#X connect 18 0 56 0;
#X connect 19 0 57 0;
#X connect 21 0 20 0;
#X connect 22 0 21 0;
#X connect 22 0 23 0;
#X connect 22 0 34 0;
#X connect 22 0 32 0;
#X connect 22 0 42 0;
#X connect 24 0 8 0;
#X connect 25 0 7 0;
#X connect 26 0 8 0;
#X connect 26 0 7 0;
#X connect 33 0 38 0;
#X connect 34 0 33 0;
#X connect 34 1 35 0;
#X connect 35 0 40 0;
#X connect 42 0 44 0;
#X connect 42 1 43 0;
#X connect 43 0 42 1;
#X connect 44 0 62 0;
#X connect 45 0 46 0;
#X connect 48 0 22 0;
#X connect 49 0 22 1;
#X connect 50 0 22 2;
#X connect 51 0 22 3;
#X connect 52 0 22 4;
#X connect 53 0 22 5;
#X connect 54 0 22 6;
#X connect 55 0 22 7;
#X connect 56 0 22 8;
#X connect 57 0 22 9;
#X connect 59 0 1 1;
#X connect 62 0 45 0;
#X connect 65 0 66 0;
#X connect 65 0 36 0;
#X connect 66 0 43 1;
#X coords 0 756 1 755 0 0 0;
