#N canvas -8 -8 1920 997 24;
#X obj -5598 -24438 formant_reader;
#X obj -5972 -24539 adc~;
#X obj -6460 -24476 bng 15 250 50 0 empty empty empty 0 0 0 10 -262144
-1 -1;
#X floatatom -5146 -24303 8 0 0 2 Variance - -;
#X obj -5306 -24276 expr sqrt($f1);
#X obj -6459 -24155 send~ recorded;
#X floatatom -5146 -24358 8 0 0 2 Mean - -;
#X floatatom -5146 -24248 8 0 0 2 Standard-Deviation - -;
#X obj -5462 -24498 bng 15 250 50 0 empty empty Clear 0 -24 0 24 -262144
-1 -1;
#X floatatom -5733 -24303 8 0 0 2 Variance - -;
#X obj -5893 -24276 expr sqrt($f1);
#X text -5524 -23900 0;
#X text -5556 -24205 100%;
#N canvas 0 0 450 300 (subpatch) 0;
#X array Formant-2 10 float 5;
#A 0 0.00727802 0.00727802 0.0131004 0.0946143 0.315866 0.342067 0.131004
0.0684134 0.0203785 0;
#X coords 0 1 9 0 400 300 1 0 0;
#X restore -5508 -24204 graph;
#X floatatom -5733 -24358 8 0 0 2 Mean - -;
#X floatatom -5733 -24248 8 0 0 2 Standard-Deviation - -;
#X text -5400 -24232 Histogram;
#X text -5140 -23903 3000 Hz;
#X obj -6152 -24320 send Formant-1;
#X obj -5565 -24320 send Formant-2;
#X obj -5565 -24358 f2Histogram;
#X text -6111 -23900 0;
#X text -6143 -24205 100%;
#N canvas 0 0 450 300 (subpatch) 0;
#X array Formant-1 10 float 5;
#A 0 0 0.157205 0.0465793 0.120815 0.190684 0.243086 0.151383 0.0582242
0.0320233 0;
#X coords 0 1 9 0 400 300 1 0 0;
#X restore -6095 -24204 graph;
#X text -5987 -24232 Histogram;
#X text -5727 -23903 900 Hz;
#X obj -5913 -24516 receive~ recorded;
#X obj -5568 -24498 bng 15 250 50 0 empty empty Pause 0 -24 0 24 -262144
-1 -1;
#X obj -5663 -24498 bng 15 250 50 0 empty empty Start 0 -24 0 24 -262144
-1 -1;
#N canvas 0 0 958 988 fileloader 0;
#X obj -1866 -23314 openpanel;
#X msg -1766 -23069 open \$1;
#X obj -1679 -23260 readsf~;
#X obj -1866 -23376 bng 15 250 50 0 empty empty empty 17 7 0 10 -262144
-1 -1;
#X obj -1635 -23131 dac~;
#X msg -1553 -23178 1;
#X obj -1519 -23357 bng 15 250 50 0 empty empty empty 17 7 0 10 -262144
-1 -1;
#X obj -1789 -23199 print;
#X symbolatom -1776 -23120 10 0 0 0 - - -;
#X text -1518 -23388 Click this play it;
#X obj -1950 -23402 inlet;
#X obj -1627 -23383 inlet;
#X obj -1643 -22918 outlet~;
#X obj -1467 -22921 outlet;
#X text -1631 -22957 Output signal | bang if started | bang if ended
;
#X obj -1253 -22924 outlet;
#X text -1879 -23406 Click this to choose a file;
#X connect 0 0 7 0;
#X connect 0 0 8 0;
#X connect 1 0 2 0;
#X connect 2 0 4 0;
#X connect 2 0 4 1;
#X connect 2 0 12 0;
#X connect 2 1 8 0;
#X connect 2 1 15 0;
#X connect 3 0 0 0;
#X connect 5 0 2 0;
#X connect 5 0 13 0;
#X connect 6 0 5 0;
#X connect 8 0 1 0;
#X connect 10 0 3 0;
#X connect 11 0 6 0;
#X restore -6460 -24257 pd fileloader;
#X obj -5969 -24470 multiplex~;
#X obj -6114 -24535 hradio 15 1 0 2 empty empty empty 0 -8 0 10 -262144
-1 -1 0;
#X obj -6242 -24476 bng 15 250 50 0 empty empty empty 0 0 0 4 -262144
-1 -1;
#X text -6542 -24544 Toggle between recorded and live audio;
#X obj -6152 -24358 f1Histogram;
#X text -6541 -24501 Choose File;
#X text -6334 -24501 Analyse File;
#X connect 0 0 34 0;
#X connect 0 1 20 0;
#X connect 1 0 30 0;
#X connect 2 0 29 0;
#X connect 3 0 4 0;
#X connect 4 0 7 0;
#X connect 8 0 20 3;
#X connect 8 0 34 3;
#X connect 9 0 10 0;
#X connect 10 0 15 0;
#X connect 20 0 19 0;
#X connect 20 2 6 0;
#X connect 20 3 3 0;
#X connect 26 0 30 1;
#X connect 27 0 20 2;
#X connect 27 0 34 2;
#X connect 28 0 20 1;
#X connect 28 0 34 1;
#X connect 29 0 5 0;
#X connect 29 1 8 0;
#X connect 29 1 28 0;
#X connect 29 2 27 0;
#X connect 30 0 0 0;
#X connect 31 0 30 0;
#X connect 31 0 8 0;
#X connect 32 0 29 1;
#X connect 34 0 18 0;
#X connect 34 2 14 0;
#X connect 34 3 9 0;
