#N canvas -8 -8 1920 997 10;
#X obj 406 212 formant_reader;
#X floatatom 446 285 5 0 0 0 - - -;
#X obj 406 111 adc~;
#X text 62 65 Audio Input;
#X obj 206 94 openpanel;
#X msg 220 129 open \$1;
#X obj 122 126 readsf~;
#X obj 158 60 bng 15 250 50 0 empty empty empty 17 7 0 10 -262144 -1
-1;
#X msg 18 111 1;
#X obj 122 185 dac~;
#X floatatom 406 284 5 0 0 0 - - -;
#X msg 629 106 stop;
#X msg 668 106 reset;
#X msg 589 107 bang;
#X text 313 344 First Formant;
#X text 314 380 Second Formant;
#X text 585 81 Click these to start \, stop and restart reading \,
respectively;
#X floatatom 588 361 5 0 0 0 - - -;
#X text 586 342 Mean;
#X floatatom 589 396 5 0 0 0 - - -;
#X floatatom 692 361 5 0 0 0 - - -;
#X floatatom 690 396 5 0 0 0 - - -;
#X obj 405 344 10secStats array1;
#X text 654 343 Standard Deviation;
#X obj 417 558 Histo;
#X obj 405 379 10secStats array2;
#X connect 0 0 10 0;
#X connect 0 1 1 0;
#X connect 1 0 25 0;
#X connect 2 0 0 0;
#X connect 4 0 5 0;
#X connect 5 0 6 0;
#X connect 6 0 9 0;
#X connect 6 0 9 1;
#X connect 7 0 4 0;
#X connect 8 0 6 0;
#X connect 10 0 22 0;
#X connect 11 0 22 2;
#X connect 11 0 25 2;
#X connect 12 0 22 3;
#X connect 12 0 25 3;
#X connect 13 0 22 1;
#X connect 13 0 25 1;
#X connect 22 1 17 0;
#X connect 22 2 20 0;
#X connect 25 0 24 0;
#X connect 25 1 19 0;
#X connect 25 2 21 0;
#X coords 0 997 1 996 0 0 0;
