#N canvas 0 0 1908 997 24;
#X obj -7506 -24676 adc~;
#X obj -7400 -24902 bng 15 250 50 0 empty empty empty 0 0 0 10 -262144
-1 -1;
#X obj -7507 -24607 multiplex~;
#X obj -7260 -24902 bng 15 250 50 0 empty empty empty 0 0 0 4 -262144
-1 -1;
#X text -7941 -24729 Toggle between recorded and live audio;
#X text -7481 -24927 Choose File;
#X text -7352 -24927 Analyse File;
#X obj -7823 -24248 segment_durations;
#N canvas 0 661 1908 997 (subpatch) 0;
#X obj -108 -83 formant_reader;
#X obj 566 -115 bng 15 250 50 0 empty empty Clear 0 -24 0 24 -262144
-1 -1;
#X obj 363 -116 bng 15 250 50 0 empty empty Pause 0 -24 0 24 -262144
-1 -1;
#X obj 191 -66 bng 15 250 50 0 empty empty Start 0 -24 0 24 -262144
-1 -1;
#N canvas 705 321 958 988 (subpatch) 0;
#X floatatom 102 375 8 0 0 2 Variance - -;
#X obj -278 278 expr sqrt($f1);
#X floatatom 6 375 8 0 0 2 Mean - -;
#X floatatom 198 375 8 0 0 2 Standard-Deviation - -;
#X obj -273 122 send Formant-1;
#N canvas 0 0 450 300 (subpatch) 0;
#X array Formant-1 10 float 5;
#A 0 0 0 0 0 0 0 0 0 0 0;
#X coords 0 1 9 0 400 300 1 0 0;
#X restore 0 21 graph;
#X obj -160 27 f1Histogram;
#X obj -160 -32 inlet;
#X obj -82 -34 inlet;
#X obj -2 -36 inlet;
#X obj 87 -38 inlet;
#X connect 0 0 1 0;
#X connect 1 0 3 0;
#X connect 6 0 4 0;
#X connect 6 2 2 0;
#X connect 6 3 0 0;
#X connect 7 0 6 0;
#X connect 8 0 6 1;
#X connect 9 0 6 2;
#X connect 10 0 6 3;
#X coords 0 1 100 -1 400 400 1 0 0;
#X restore 0 0 graph;
#N canvas 0 327 1908 687 (subpatch) 0;
#X floatatom 102 375 8 0 0 2 Variance - -;
#X obj -278 278 expr sqrt($f1);
#X floatatom 6 375 8 0 0 2 Mean - -;
#X floatatom 198 375 8 0 0 2 Standard-Deviation - -;
#N canvas 0 0 450 300 (subpatch) 0;
#X array Formant-2 10 float 5;
#A 0 0 0 0 0 0 0 0 0 0 0;
#X coords 0 1 9 0 400 300 1 0 0;
#X restore 0 21 graph;
#X obj -160 -32 inlet;
#X obj -82 -34 inlet;
#X obj -2 -36 inlet;
#X obj 87 -38 inlet;
#X obj -160 27 f2Histogram;
#X obj -273 122 send Formant-2;
#X connect 0 0 1 0;
#X connect 1 0 3 0;
#X connect 5 0 9 0;
#X connect 6 0 9 1;
#X connect 7 0 9 2;
#X connect 8 0 9 3;
#X connect 9 0 10 0;
#X connect 9 2 2 0;
#X connect 9 3 0 0;
#X coords 0 1 100 -1 400 400 1 0 0;
#X restore 400 0 graph;
#X obj -107 -154 inlet~;
#X obj 104 -159 inlet;
#X obj 330 -190 inlet;
#X obj 573 -200 inlet;
#X connect 0 0 4 0;
#X connect 0 1 5 0;
#X connect 1 0 4 3;
#X connect 1 0 5 3;
#X connect 2 0 4 2;
#X connect 2 0 5 2;
#X connect 3 0 4 1;
#X connect 3 0 5 1;
#X connect 6 0 0 0;
#X connect 7 0 3 0;
#X connect 8 0 2 0;
#X connect 9 0 1 0;
#X coords 0 1 100 -1 800 400 1 0 0;
#X restore -7508 -24554 graph;
#X obj -6715 -24705 bng 15 250 50 0 empty empty Clear 0 -24 0 24 -262144
-1 -1;
#X obj -6980 -24705 bng 15 250 50 0 empty empty Pause 0 -24 0 24 -262144
-1 -1;
#X obj -7244 -24705 bng 15 250 50 0 empty empty Start 0 -24 0 24 -262144
-1 -1;
#N canvas 0 0 958 988 fileloader 0;
#X obj -1866 -23314 openpanel;
#X msg -1766 -23069 open \$1;
#X obj -1679 -23260 readsf~;
#X obj -1866 -23376 bng 15 250 50 0 empty empty empty 17 7 0 10 -262144
-1 -1;
#X obj -1635 -23131 dac~;
#X msg -1553 -23178 1;
#X obj -1519 -23357 bng 15 250 50 0 empty empty empty 17 7 0 10 -262144
-1 -1;
#X obj -1789 -23199 print;
#X symbolatom -1776 -23120 10 0 0 0 - - -;
#X text -1518 -23388 Click this play it;
#X obj -1950 -23402 inlet;
#X obj -1627 -23383 inlet;
#X obj -1643 -22918 outlet~;
#X obj -1467 -22921 outlet;
#X text -1631 -22957 Output signal | bang if started | bang if ended
;
#X obj -1253 -22924 outlet;
#X text -1879 -23406 Click this to choose a file;
#X connect 0 0 7 0;
#X connect 0 0 8 0;
#X connect 1 0 2 0;
#X connect 2 0 4 0;
#X connect 2 0 4 1;
#X connect 2 0 12 0;
#X connect 2 1 8 0;
#X connect 2 1 15 0;
#X connect 3 0 0 0;
#X connect 5 0 2 0;
#X connect 5 0 13 0;
#X connect 6 0 5 0;
#X connect 8 0 1 0;
#X connect 10 0 3 0;
#X connect 11 0 6 0;
#X restore -7400 -24673 pd fileloader;
#X obj -7507 -24720 hradio 15 1 0 2 empty empty empty 0 -8 0 10 -262144
-1 -1 0;
#X connect 0 0 2 0;
#X connect 1 0 12 0;
#X connect 2 0 7 0;
#X connect 2 0 8 0;
#X connect 3 0 12 1;
#X connect 9 0 8 3;
#X connect 10 0 8 2;
#X connect 11 0 8 1;
#X connect 12 0 2 1;
#X connect 12 1 9 0;
#X connect 12 1 11 0;
#X connect 12 2 10 0;
#X connect 13 0 9 0;
#X connect 13 0 2 0;
