#N canvas 953 0 958 988 10;
#X obj 266 367 formant_reader;
#X floatatom 321 436 5 0 0 0 - - -;
#X obj 406 111 adc~;
#X text 62 65 Audio Input;
#X obj 206 94 openpanel;
#X msg 220 129 open \$1;
#X obj 122 126 readsf~;
#X obj 158 60 bng 15 250 50 0 empty empty empty 17 7 0 10 -262144 -1
-1;
#X msg 18 111 1;
#X obj 122 185 dac~;
#X obj 406 25 bng 15 250 50 0 empty empty empty 17 7 0 10 -262144 -1
-1;
#X obj 483 202 bng 15 250 50 0 empty empty empty 17 7 0 10 -262144
-1 -1;
#X text 633 622 F2;
#X text 637 665 F1;
#X obj 266 582 avg~;
#X obj 321 586 avg~;
#X floatatom 666 662 5 0 0 0 - - -;
#X floatatom 655 621 8 0 0 0 - - -;
#X text 657 599 Means;
#X msg 553 226 stop;
#X obj 442 410 metro 1000;
#X obj 703 195 hsl 128 15 1 60 0 0 empty empty empty -2 -8 0 10 -262144
-1 -1 0 1;
#X floatatom 602 350 5 0 0 0 - - -;
#X obj 651 389 * 1000;
#X floatatom 193 542 5 0 0 0 - - -;
#X obj 701 545 list-stddev;
#X floatatom 812 606 5 0 0 0 - - -;
#X obj 250 775 list-random 100 10;
#X msg 250 754 bang;
#X obj 250 805 list-stddev;
#X floatatom 250 828 5 0 0 3 std_deviation - -;
#X msg 352 894 83 99 49 7 4 93 94 64 29 47;
#N canvas 0 0 450 300 show 0;
#X obj 41 39 inlet;
#X obj 186 36 inlet;
#X obj 41 124 outlet;
#X msg 186 76 set;
#X obj 41 59 list prepend set;
#X obj 41 83 list trim;
#X connect 0 0 4 0;
#X connect 1 0 3 0;
#X connect 3 0 2 0;
#X connect 4 0 5 0;
#X connect 5 0 2 0;
#X restore 352 874 pd show;
#X obj 609 853 append;
#X floatatom 539 682 5 0 0 0 - - -;
#X text 576 681 <= frequency (Hz);
#X obj 521 757 hist 0 500 25;
#X msg 635 720 relative;
#N canvas 0 0 450 300 (subpatch) 0;
#X array array1 25 float 3;
#A 0 0.000233263 0 0 0.00069979 0.000933053 0.00069979 0.000233263
0.000233263 0 0.00116632 0.000466527 0.00069979 0.000466527 0.000466527
0.000466527 0.000933053 0.00116632 0.000933053 0.00069979 0.00116632
0.00116632 0.00069979 0.000933053 0.984605 0;
#X coords 0 1 25 0 200 140 1 0 0;
#X restore 707 705 graph;
#X obj 544 815 send array1;
#X obj 438 791 average;
#X floatatom 438 850 5 0 0 0 - - -;
#X msg 658 745 clear;
#X obj 139 807 average;
#X floatatom 139 866 5 0 0 0 - - -;
#X msg 125 739 10;
#X connect 0 0 24 0;
#X connect 0 1 1 0;
#X connect 1 0 15 0;
#X connect 1 0 34 0;
#X connect 2 0 0 0;
#X connect 4 0 5 0;
#X connect 5 0 6 0;
#X connect 6 0 9 0;
#X connect 6 0 9 1;
#X connect 7 0 4 0;
#X connect 8 0 6 0;
#X connect 10 0 2 0;
#X connect 11 0 20 0;
#X connect 14 0 16 0;
#X connect 15 0 17 0;
#X connect 19 0 20 0;
#X connect 20 0 15 0;
#X connect 20 0 14 0;
#X connect 21 0 22 0;
#X connect 22 0 23 0;
#X connect 23 0 20 1;
#X connect 24 0 14 0;
#X connect 25 0 26 0;
#X connect 27 0 29 0;
#X connect 27 0 32 0;
#X connect 27 0 43 0;
#X connect 28 0 27 0;
#X connect 29 0 30 0;
#X connect 32 0 31 0;
#X connect 34 0 36 0;
#X connect 34 0 37 0;
#X connect 34 0 40 0;
#X connect 36 0 39 0;
#X connect 37 0 36 0;
#X connect 40 0 41 0;
#X connect 42 0 36 0;
#X connect 43 0 44 0;
