#N canvas -8 -8 1920 997 24;
#X obj -14092 -30773 adc~;
#X obj -14254 -30885 bng 15 250 50 0 empty empty Open -24 -12 0 24
-262144 -1 -1;
#X obj -14304 -30759 multiplex~;
#X obj -14114 -30885 bng 15 250 50 0 empty empty Analyse -24 -12 0
24 -262144 -1 -1;
#N canvas 193 248 958 988 (subpatch) 0;
#X obj -108 -83 formant_reader;
#X obj 566 -115 bng 15 250 50 0 empty empty Clear 0 -24 0 24 -262144
-1 -1;
#X obj 363 -116 bng 15 250 50 0 empty empty Pause 0 -24 0 24 -262144
-1 -1;
#X obj 191 -66 bng 15 250 50 0 empty empty Start 0 -24 0 24 -262144
-1 -1;
#N canvas 712 284 958 988 (subpatch) 0;
#X floatatom 102 375 8 0 0 2 Variance - -;
#X obj -278 278 expr sqrt($f1);
#X floatatom 6 375 8 0 0 2 Mean - -;
#X floatatom 198 375 8 0 0 2 Standard-Deviation - -;
#X obj -273 122 send Formant-1;
#N canvas 0 0 450 300 (subpatch) 0;
#X array Formant-1 10 float 5;
#A 0 0 0.302222 0.0844444 0.111111 0.106667 0.08 0.0888889 0.0755556
0.151111 0;
#X coords 0 1 9 0 400 300 1 0 0;
#X restore 0 21 graph;
#X obj -160 27 f1Histogram;
#X obj -160 -32 inlet;
#X obj -82 -34 inlet;
#X obj -2 -36 inlet;
#X obj 87 -38 inlet;
#X text 2 317 0;
#X text 330 317 900 Hz;
#X connect 0 0 1 0;
#X connect 1 0 3 0;
#X connect 6 0 4 0;
#X connect 6 2 2 0;
#X connect 6 3 0 0;
#X connect 7 0 6 0;
#X connect 8 0 6 1;
#X connect 9 0 6 2;
#X connect 10 0 6 3;
#X coords 0 1 100 -1 400 400 1 0 0;
#X restore 0 40 graph;
#N canvas 0 327 1908 687 (subpatch) 0;
#X floatatom 102 375 8 0 0 2 Variance - -;
#X obj -278 278 expr sqrt($f1);
#X floatatom 6 375 8 0 0 2 Mean - -;
#X floatatom 198 375 8 0 0 2 Standard-Deviation - -;
#N canvas 0 0 450 300 (subpatch) 0;
#X array Formant-2 10 float 5;
#A 0 0.00888889 0.0311111 0.0711111 0.111111 0.16 0.12 0.0933333 0.128889
0.271111 0;
#X coords 0 1 9 0 400 300 1 0 0;
#X restore 0 21 graph;
#X obj -160 -32 inlet;
#X obj -82 -34 inlet;
#X obj -2 -36 inlet;
#X obj 87 -38 inlet;
#X obj -160 27 f2Histogram;
#X obj -273 122 send Formant-2;
#X text 2 317 0;
#X text 319 317 3000 Hz;
#X connect 0 0 1 0;
#X connect 1 0 3 0;
#X connect 5 0 9 0;
#X connect 6 0 9 1;
#X connect 7 0 9 2;
#X connect 8 0 9 3;
#X connect 9 0 10 0;
#X connect 9 2 2 0;
#X connect 9 3 0 0;
#X coords 0 1 100 -1 400 400 1 0 0;
#X restore 400 40 graph;
#X obj -107 -154 inlet~;
#X obj 104 -159 inlet;
#X obj 330 -190 inlet;
#X obj 573 -200 inlet;
#X text 0 11 Formant Frequency Histograms;
#X connect 0 0 4 0;
#X connect 0 1 5 0;
#X connect 1 0 4 3;
#X connect 1 0 5 3;
#X connect 2 0 4 2;
#X connect 2 0 5 2;
#X connect 3 0 4 1;
#X connect 3 0 5 1;
#X connect 6 0 0 0;
#X connect 7 0 3 0;
#X connect 8 0 2 0;
#X connect 9 0 1 0;
#X coords 0 1 100 -1 800 440 1 0 0;
#X restore -14937 -30709 graph;
#X obj -13505 -30885 bng 15 250 50 0 empty empty Clear -24 -12 0 24
-262144 -1 -1;
#X obj -13770 -30885 bng 15 250 50 0 empty empty Pause -24 -12 0 24
-262144 -1 -1;
#X obj -13873 -30885 bng 15 250 50 0 empty empty Start -24 -12 0 24
-262144 -1 -1;
#N canvas 172 195 958 988 fileloader 0;
#X obj -1866 -23314 openpanel;
#X msg -1766 -23069 open \$1;
#X obj -1679 -23260 readsf~;
#X obj -1866 -23376 bng 15 250 50 0 empty empty empty 17 7 0 10 -262144
-1 -1;
#X obj -1635 -23131 dac~;
#X msg -1553 -23178 1;
#X obj -1519 -23357 bng 15 250 50 0 empty empty empty 17 7 0 10 -262144
-1 -1;
#X obj -1789 -23199 print;
#X symbolatom -1776 -23120 10 0 0 0 - - -;
#X text -1518 -23388 Click this play it;
#X obj -1950 -23402 inlet;
#X obj -1627 -23383 inlet;
#X obj -1643 -22918 outlet~;
#X obj -1467 -22921 outlet;
#X text -1631 -22957 Output signal | bang if started | bang if ended
;
#X obj -1253 -22924 outlet;
#X text -1879 -23406 Click this to choose a file;
#X text -1463 -23202 AUTHOR: JACK CHENG DING HAN;
#X connect 0 0 7 0;
#X connect 0 0 8 0;
#X connect 1 0 2 0;
#X connect 2 0 4 0;
#X connect 2 0 4 1;
#X connect 2 0 12 0;
#X connect 2 1 8 0;
#X connect 2 1 15 0;
#X connect 3 0 0 0;
#X connect 5 0 2 0;
#X connect 5 0 13 0;
#X connect 6 0 5 0;
#X connect 8 0 1 0;
#X connect 10 0 3 0;
#X connect 11 0 6 0;
#X restore -14196 -30812 pd fileloader;
#X obj -14430 -30900 hradio 15 1 0 2 empty empty empty 0 -8 0 10 -262144
-1 -1 1;
#N canvas 439 250 958 988 (subpatch) 0;
#X obj 566 -115 bng 15 250 50 0 empty empty Clear 0 -24 0 24 -262144
-1 -1;
#X obj 363 -116 bng 15 250 50 0 empty empty Pause 0 -24 0 24 -262144
-1 -1;
#X obj 191 -66 bng 15 250 50 0 empty empty Start 0 -24 0 24 -262144
-1 -1;
#N canvas 705 321 958 988 (subpatch) 0;
#X floatatom 102 375 8 0 0 2 Variance - -;
#X obj -278 278 expr sqrt($f1);
#X floatatom 6 375 8 0 0 2 Mean - -;
#X floatatom 198 375 8 0 0 2 Standard-Deviation - -;
#N canvas 0 0 450 300 (subpatch) 0;
#X array Voiced-Durations 10 float 5;
#A 0 0.14749 0.150628 0.164226 0.112971 0.0962343 0.0721757 0.039749
0.0303347 0.0899582 0;
#X coords 0 1 9 0 400 300 1 0 0;
#X restore 0 21 graph;
#X obj -160 -32 inlet;
#X obj -82 -34 inlet;
#X obj -2 -36 inlet;
#X obj 87 -38 inlet;
#X obj -160 27 voicing-histogram;
#X obj -273 122 send Voiced-Durations;
#X text 3 318 0;
#X text 359 318 6 s;
#X connect 0 0 1 0;
#X connect 1 0 3 0;
#X connect 5 0 9 0;
#X connect 6 0 9 1;
#X connect 7 0 9 2;
#X connect 8 0 9 3;
#X connect 9 0 10 0;
#X connect 9 2 2 0;
#X connect 9 3 0 0;
#X coords 0 1 100 -1 400 400 1 0 0;
#X restore 0 40 graph;
#N canvas 333 247 958 988 (subpatch) 0;
#X floatatom 102 375 8 0 0 2 Variance - -;
#X obj -278 278 expr sqrt($f1);
#X floatatom 198 375 8 0 0 2 Standard-Deviation - -;
#N canvas 0 0 450 300 (subpatch) 0;
#X array Unvoiced-Durations 10 float 5;
#A 0 0.260465 0.0511628 0.0744186 0.0883721 0.0511628 0.0465116 0.0232558
0.0418605 0.204651 0;
#X coords 0 1 9 0 400 300 1 0 0;
#X restore 0 21 graph;
#X obj -160 -32 inlet;
#X obj -82 -34 inlet;
#X obj -2 -36 inlet;
#X obj 87 -38 inlet;
#X obj -160 27 voicing-histogram;
#X obj -273 122 send Unvoiced-Durations;
#X floatatom 6 375 8 0 0 2 Mean - -;
#X text 3 318 0;
#X text 359 318 6 s;
#X connect 0 0 1 0;
#X connect 1 0 2 0;
#X connect 4 0 8 0;
#X connect 5 0 8 1;
#X connect 6 0 8 2;
#X connect 7 0 8 3;
#X connect 8 0 9 0;
#X connect 8 2 10 0;
#X connect 8 3 0 0;
#X coords 0 1 100 -1 400 400 1 0 0;
#X restore 400 40 graph;
#X obj -107 -154 inlet~;
#X obj 104 -159 inlet;
#X obj 330 -190 inlet;
#X obj 573 -200 inlet;
#X obj -108 -83 segment_durations;
#X text 0 11 Voiced/Unvoiced Duration Histograms;
#X connect 0 0 3 3;
#X connect 0 0 4 3;
#X connect 1 0 3 2;
#X connect 1 0 4 2;
#X connect 2 0 3 1;
#X connect 2 0 4 1;
#X connect 5 0 9 0;
#X connect 6 0 2 0;
#X connect 7 0 1 0;
#X connect 8 0 0 0;
#X connect 9 0 3 0;
#X connect 9 1 4 0;
#X coords 0 1 100 -1 800 440 1 0 0;
#X restore -14137 -30709 graph;
#X text -13808 -30938 Live Audio Controls;
#X text -14289 -30938 Recorded Audio Controls;
#X text -14860 -30908 Toggle between live and recorded audio;
#X text -14936 -30802 AUTHORS: Jack Cheng Ding Han & Afolabi Nathan-Marsh
;
#X obj -14525 -30859 output~;
#X obj -14406 -30885 catch~ audio;
#X text -14725 -30848 Volume/Mute Audio;
#X connect 0 0 2 0;
#X connect 1 0 8 0;
#X connect 2 0 4 0;
#X connect 2 0 10 0;
#X connect 3 0 8 1;
#X connect 5 0 4 3;
#X connect 5 0 10 3;
#X connect 6 0 4 2;
#X connect 6 0 10 2;
#X connect 7 0 4 1;
#X connect 7 0 10 1;
#X connect 8 0 2 1;
#X connect 8 1 5 0;
#X connect 8 1 7 0;
#X connect 8 2 6 0;
#X connect 9 0 5 0;
#X connect 9 0 2 0;
#X connect 16 0 15 0;
#X connect 16 0 15 1;
