#N canvas 704 0 1204 944 10;
#X obj -585 -22489 formant_reader;
#X floatatom -545 -22417 5 0 0 0 - - -;
#X obj -715 -22259 adc~;
#X text -963 -22532 Audio Input;
#X obj -819 -22486 openpanel;
#X msg -819 -22449 open \$1;
#X obj -903 -22486 readsf~;
#X obj -867 -22531 bng 15 250 50 0 empty empty empty 17 7 0 10 -262144
-1 -1;
#X obj -903 -22412 dac~;
#X floatatom -585 -22417 5 0 0 0 - - -;
#X msg -519 -22620 stop;
#X msg -486 -22620 reset;
#X msg -552 -22620 bang;
#X text -678 -22357 First Formant;
#X text -678 -22066 Second Formant;
#X text -555 -22643 Click these to start \, stop and restart reading
\, respectively;
#X floatatom -396 -22339 5 0 0 0 - - -;
#X text -405 -22357 Mean;
#X floatatom -396 -22046 5 0 0 0 - - -;
#X floatatom -329 -22339 8 0 0 0 - - -;
#X floatatom -329 -22046 8 0 0 0 - - -;
#X obj -585 -22356 10secStats array1;
#X floatatom -190 -22338 5 0 0 0 - - -;
#X floatatom -189 -22046 5 0 0 0 - - -;
#X text -213 -22357 Standard Deviation;
#X text -337 -22357 Variance;
#X obj -279 -22323 expr sqrt($f1);
#X obj -278 -22030 expr sqrt($f1);
#X msg -959 -22491 1;
#X obj -585 -22063 10secStats array2;
#X floatatom -235 -22591 5 0 0 0 - - -;
#X obj -235 -22452 select 99;
#N canvas 0 0 450 300 (subpatch) 0;
#X array array3 10 float 3;
#A 0 0 0 0 0 0 0 0 0 0 0;
#X coords 0 1 10 0 200 140 1 0 0;
#X restore -86 -22327 graph;
#X text -102 -22191 0;
#X text 99 -22177 900;
#X text -34 -22160 Frequency (Hz);
#X text -127 -22336 100%;
#X obj -298 -22376 send array3;
#X text -821 -22631 Use live audio?;
#X obj -715 -22626 tgl 15 0 empty empty empty 17 7 0 10 -262144 -1
-1 0 1;
#X obj -715 -22597 select 1;
#X obj -816 -22338 send~ recorded;
#X obj -790 -22196 send~ recorded;
#X obj -667 -22556 receive recorded;
#N canvas 0 0 450 300 (subpatch) 0;
#X array array4 10 float 3;
#A 0 0 0 0 0 0 0 0 0 0 0;
#X coords 0 1 10 0 200 140 1 0 0;
#X restore -83 -22069 graph;
#X text -99 -21933 0;
#X text -31 -21902 Frequency (Hz);
#X text -124 -22078 100%;
#X floatatom -235 -22297 5 0 0 0 - - -;
#X obj -235 -22158 select 99;
#X obj -298 -22082 send array4;
#X obj -298 -22401 f1Histogram;
#X obj -298 -22107 f2Histogram;
#X floatatom -420 -21957 5 0 0 0 - - -;
#X text 102 -21919 3000;
#X floatatom -457 -22238 5 0 0 0 - - -;
#X connect 0 0 9 0;
#X connect 0 1 1 0;
#X connect 1 0 29 0;
#X connect 1 0 52 0;
#X connect 2 0 0 0;
#X connect 4 0 5 0;
#X connect 5 0 6 0;
#X connect 6 0 8 0;
#X connect 6 0 8 1;
#X connect 6 0 0 0;
#X connect 6 0 41 0;
#X connect 7 0 4 0;
#X connect 9 0 21 0;
#X connect 9 0 51 0;
#X connect 10 0 21 2;
#X connect 10 0 29 2;
#X connect 11 0 21 3;
#X connect 11 0 29 3;
#X connect 12 0 21 1;
#X connect 12 0 29 1;
#X connect 19 0 26 0;
#X connect 20 0 27 0;
#X connect 21 1 16 0;
#X connect 21 2 19 0;
#X connect 21 4 55 0;
#X connect 21 5 30 0;
#X connect 26 0 22 0;
#X connect 27 0 23 0;
#X connect 28 0 6 0;
#X connect 29 1 18 0;
#X connect 29 2 20 0;
#X connect 29 4 53 0;
#X connect 29 5 48 0;
#X connect 30 0 31 0;
#X connect 31 0 51 1;
#X connect 39 0 40 0;
#X connect 40 1 28 0;
#X connect 48 0 49 0;
#X connect 49 0 52 1;
#X connect 51 0 37 0;
#X connect 51 1 21 4;
#X connect 52 0 50 0;
#X connect 52 1 29 4;
#X coords 0 944 1 943 0 0 0;
