#N canvas -973 245 1908 876 10;
#X obj 315 -22470 formant_reader;
#X floatatom 355 -22398 5 0 0 0 - - -;
#X obj 315 -22571 adc~;
#X text -63 -22513 Audio Input;
#X obj 81 -22467 openpanel;
#X msg 81 -22430 open \$1;
#X obj -3 -22467 readsf~;
#X obj 33 -22512 bng 15 250 50 0 empty empty empty 17 7 0 10 -262144
-1 -1;
#X obj -3 -22393 dac~;
#X floatatom 315 -22398 5 0 0 0 - - -;
#X msg 538 -22571 stop;
#X msg 577 -22571 reset;
#X msg 494 -22582 bang;
#X text 222 -22338 First Formant;
#X text 222 -22304 Second Formant;
#X text 494 -22617 Click these to start \, stop and restart reading
\, respectively;
#X floatatom 507 -22320 5 0 0 0 - - -;
#X text 495 -22338 Mean;
#X floatatom 503 -22283 5 0 0 0 - - -;
#X floatatom 587 -22320 8 0 0 0 - - -;
#X floatatom 571 -22283 8 0 0 0 - - -;
#X obj 314 -22337 10secStats array1;
#X floatatom 740 -22320 5 0 0 0 - - -;
#X floatatom 738 -22281 5 0 0 0 - - -;
#X text 687 -22338 Standard Deviation;
#X text 563 -22338 Variance;
#X obj 650 -22281 expr sqrt($f1);
#X obj 650 -22244 expr sqrt($f1);
#X obj 314 -22300 10secStats array2;
#X msg -68 -22437;
#X floatatom 1057 -22496 5 0 0 0 - - -;
#X floatatom 1224 -22501 5 0 0 0 - - -;
#X obj 853 -22208 f1Histogram MyVar1;
#X obj 1005 -22321 send MyVar1 \$1;
#X floatatom 1253 -22370 5 0 0 0 - - -;
#X connect 0 0 9 0;
#X connect 0 1 1 0;
#X connect 1 0 28 0;
#X connect 2 0 0 0;
#X connect 4 0 5 0;
#X connect 5 0 6 0;
#X connect 6 0 8 0;
#X connect 6 0 8 1;
#X connect 7 0 4 0;
#X connect 9 0 21 0;
#X connect 9 0 32 0;
#X connect 10 0 21 2;
#X connect 10 0 28 2;
#X connect 11 0 21 3;
#X connect 11 0 28 3;
#X connect 12 0 21 1;
#X connect 12 0 28 1;
#X connect 19 0 26 0;
#X connect 20 0 27 0;
#X connect 21 1 16 0;
#X connect 21 2 19 0;
#X connect 26 0 22 0;
#X connect 27 0 23 0;
#X connect 28 1 18 0;
#X connect 28 2 20 0;
#X connect 29 0 6 0;
#X connect 31 0 33 0;
#X coords 0 876 1 875 0 0 0;
