#N canvas 358 31 1441 988 10;
#X obj 285 308 formant_reader;
#X floatatom 266 437 5 0 0 0 - - -;
#X floatatom 405 429 5 0 0 0 - - -;
#X obj 406 111 adc~;
#X text 116 149 Audio Input;
#X obj 260 178 openpanel;
#X msg 274 213 open \$1;
#X obj 176 210 readsf~;
#X obj 212 144 bng 15 250 50 0 empty empty empty 17 7 0 10 -262144
-1 -1;
#X msg 72 195 1;
#X obj 176 269 dac~;
#X obj 406 25 bng 15 250 50 0 empty empty empty 17 7 0 10 -262144 -1
-1;
#X obj 451 179 bng 15 250 50 0 empty empty empty 17 7 0 10 -262144
-1 -1;
#X text 477 180 Start/Stop Measuring;
#X text 518 876 F2;
#X text 469 890 F1;
#X obj 465 694 avg~;
#X obj 520 693 avg~;
#X floatatom 464 791 5 0 0 0 - - -;
#X floatatom 529 793 8 0 0 0 - - -;
#X text 656 67 End Analysis;
#X obj 797 307 select 0 1;
#X text 487 160 Start Analysis;
#X obj 916 598 metro 100;
#X obj 916 639 int 0;
#X obj 962 639 + 1;
#X obj 1000 640 s slider;
#X obj 962 690 zexy/wrap 99;
#X floatatom 916 691 5 0 0 0 - - -;
#X obj 916 728 t b f;
#X floatatom 856 766 5 0 0 0 - - -;
#X floatatom 943 767 5 0 0 0 - - -;
#X obj 856 805 tabwrite array1;
#X msg 916 555 bang;
#X msg 967 555 stop;
#X msg 1008 555 reset;
#X msg 982 598 0;
#N canvas 1139 457 450 300 (subpatch) 0;
#X array array1 5 float 4;
#X coords 0 0 4 6 400 200 1 0 0;
#X restore 1057 291 graph;
#X obj 848 680 / 1000;
#X obj 797 265 >;
#X text 902 196 Ambient;
#X floatatom 859 194 5 0 0 0 - - -;
#X floatatom 797 217 5 0 0 0 - - -;
#X text 864 51 Stop Manually;
#X obj 830 51 tgl 15 0 empty empty empty 17 7 0 10 -262144 -1 -1 0
1;
#X obj 636 68 bng 15 250 50 0 empty empty empty 17 7 0 10 -262144 -1
-1;
#X connect 0 0 1 0;
#X connect 0 1 2 0;
#X connect 0 2 42 0;
#X connect 1 0 16 0;
#X connect 2 0 17 0;
#X connect 2 0 38 0;
#X connect 5 0 6 0;
#X connect 6 0 7 0;
#X connect 7 0 10 0;
#X connect 7 0 10 1;
#X connect 7 0 0 0;
#X connect 8 0 5 0;
#X connect 9 0 7 0;
#X connect 11 0 3 0;
#X connect 12 0 9 0;
#X connect 12 0 16 0;
#X connect 12 0 17 0;
#X connect 12 0 33 0;
#X connect 16 0 18 0;
#X connect 17 0 19 0;
#X connect 21 1 16 0;
#X connect 21 1 17 0;
#X connect 21 1 34 0;
#X connect 23 0 24 0;
#X connect 24 0 25 0;
#X connect 24 0 28 0;
#X connect 25 0 27 0;
#X connect 27 0 24 1;
#X connect 28 0 29 0;
#X connect 29 0 30 0;
#X connect 29 1 31 0;
#X connect 30 0 32 0;
#X connect 31 0 32 1;
#X connect 33 0 23 0;
#X connect 33 0 36 0;
#X connect 34 0 36 0;
#X connect 34 0 23 0;
#X connect 35 0 36 0;
#X connect 36 0 24 1;
#X connect 36 0 26 0;
#X connect 38 0 30 0;
#X connect 39 0 21 0;
#X connect 41 0 39 1;
#X connect 42 0 39 0;
#X connect 45 0 17 0;
#X connect 45 0 16 0;
