#N canvas -7 0 958 988 10;
#X obj 266 358 formant_reader;
#X floatatom 321 427 5 0 0 0 - - -;
#X obj 406 102 adc~;
#X text 62 56 Audio Input;
#X obj 206 85 openpanel;
#X msg 220 120 open \$1;
#X obj 122 117 readsf~;
#X obj 158 51 bng 15 250 50 0 empty empty empty 17 7 0 10 -262144 -1
-1;
#X msg 18 102 1;
#X obj 122 176 dac~;
#X obj 406 16 bng 15 250 50 0 empty empty empty 17 7 0 10 -262144 -1
-1;
#X obj 483 193 bng 15 250 50 0 empty empty empty 17 7 0 10 -262144
-1 -1;
#X text 633 613 F2;
#X text 637 656 F1;
#X obj 266 573 avg~;
#X obj 321 577 avg~;
#X floatatom 666 653 5 0 0 0 - - -;
#X floatatom 655 612 8 0 0 0 - - -;
#X text 657 590 Means;
#X msg 553 217 stop;
#X obj 442 401 metro 1000;
#X obj 703 186 hsl 128 15 1 60 0 0 empty empty empty -2 -8 0 10 -262144
-1 -1 0 1;
#X floatatom 602 341 5 0 0 0 - - -;
#X obj 651 380 * 1000;
#X floatatom 193 533 5 0 0 0 - - -;
#X obj 701 536 list-stddev;
#X floatatom 812 597 5 0 0 0 - - -;
#X floatatom 820 912 5 0 0 0 - - -;
#X msg 417 889 111.417 2381.5 3235.43 0 832.283 1207.09 538.189 1261.81
941.339 1748.82;
#N canvas 0 0 450 300 show 0;
#X obj 41 39 inlet;
#X obj 186 36 inlet;
#X obj 41 124 outlet;
#X msg 186 76 set;
#X obj 41 59 list prepend set;
#X obj 41 83 list trim;
#X connect 0 0 4 0;
#X connect 1 0 3 0;
#X connect 3 0 2 0;
#X connect 4 0 5 0;
#X connect 5 0 2 0;
#X restore 417 825 pd show;
#X obj 820 862 list-mean;
#X msg 950 658 stop;
#X msg 998 654 reset;
#X obj 858 773 10secStats;
#X msg 877 660 bang;
#X connect 0 0 24 0;
#X connect 0 1 1 0;
#X connect 1 0 15 0;
#X connect 1 0 33 0;
#X connect 2 0 0 0;
#X connect 4 0 5 0;
#X connect 5 0 6 0;
#X connect 6 0 9 0;
#X connect 6 0 9 1;
#X connect 7 0 4 0;
#X connect 8 0 6 0;
#X connect 10 0 2 0;
#X connect 11 0 20 0;
#X connect 14 0 16 0;
#X connect 15 0 17 0;
#X connect 19 0 20 0;
#X connect 20 0 15 0;
#X connect 20 0 14 0;
#X connect 21 0 22 0;
#X connect 22 0 23 0;
#X connect 23 0 20 1;
#X connect 24 0 14 0;
#X connect 25 0 26 0;
#X connect 29 0 28 0;
#X connect 30 0 27 0;
#X connect 31 0 33 2;
#X connect 32 0 33 3;
#X connect 33 0 29 0;
#X connect 33 0 30 0;
#X connect 34 0 33 1;
#X coords 0 988 1 987 0 0 0;
