#N canvas -8 -8 1920 997 24;
#X obj -1439 -23362 formant_reader;
#X floatatom -761 -23336 5 0 0 0 - - -;
#X obj -1338 -23441 adc~;
#X obj -1876 -23324 openpanel;
#X msg -1776 -23079 open \$1;
#X obj -1981 -23293 readsf~;
#X obj -1566 -23026 bng 15 250 50 0 empty empty empty 17 7 0 10 -262144
-1 -1;
#X obj -1960 -23245 dac~;
#X floatatom -1347 -23310 5 0 0 0 - - -;
#X floatatom -342 -23203 8 0 0 0 - - -;
#X text -343 -23229 Variance;
#X obj -502 -23176 expr sqrt($f1);
#X msg -1563 -23188 1;
#X text -1936 -23469 Use live audio?;
#X obj -1772 -23463 tgl 15 0 empty empty empty 17 7 0 10 -262144 -1
-1 0 1;
#X obj -1920 -23405 select 1;
#X obj -1873 -23171 send~ recorded;
#X floatatom -342 -23258 8 0 0 0 - - -;
#X text -343 -23284 Mean;
#X floatatom -342 -23148 8 0 0 0 - - -;
#X text -343 -23174 Standard Deviation;
#X obj -627 -23396 bng 15 250 50 0 empty empty empty 17 7 0 10 -262144
-1 -1;
#X floatatom -929 -23203 8 0 0 0 - - -;
#X obj -1089 -23176 expr sqrt($f1);
#X text -720 -22800 0;
#X text -752 -23105 100%;
#N canvas 0 0 450 300 (subpatch) 0;
#X array Formant-2 10 float 5;
#A 0 0 0 0 0.8 0.2 0 0 0 0 0;
#X coords 0 1 9 0 400 300 1 0 0;
#X restore -704 -23104 graph;
#X floatatom -929 -23258 8 0 0 0 - - -;
#X text -930 -23284 Mean;
#X floatatom -929 -23148 8 0 0 0 - - -;
#X text -596 -23132 Histogram;
#X text -336 -22803 3000 Hz;
#X obj -1348 -23258 f1Histogram;
#X obj -1348 -23220 send Formant-1;
#X obj -761 -23220 send Formant-2;
#X obj -761 -23258 f2Histogram;
#X text -930 -23229 Variance;
#X text -930 -23174 Standard Deviation;
#X text -1307 -22800 0;
#X text -1339 -23105 100%;
#N canvas 0 0 450 300 (subpatch) 0;
#X array Formant-1 10 float 5;
#A 0 0 0.4 0 0.4 0 0.1 0.1 0 0 0;
#X coords 0 1 9 0 400 300 1 0 0;
#X restore -1291 -23104 graph;
#X text -1183 -23132 Histogram;
#X text -923 -22803 900 Hz;
#X obj -1607 -23422 receive~ recorded;
#X obj -1045 -23404 bng 15 250 50 0 empty empty empty 17 7 0 10 -262144
-1 -1;
#X text -1031 -23432 Stop;
#X text -656 -23425 Restart;
#X obj -1185 -23410 bng 15 250 50 0 empty empty empty 17 7 0 10 -262144
-1 -1;
#X text -1166 -23439 Start;
#X obj -1542 -22990 bng 15 250 50 0 empty empty empty 17 7 0 10 -262144
-1 -1;
#X text -1920 -22995 Click this to start analysing it;
#X text -1881 -23036 Click this to choose a file;
#X obj -1799 -23209 print;
#X symbolatom -1786 -23130 10 0 0 0 - - -;
#X connect 0 0 8 0;
#X connect 0 1 1 0;
#X connect 1 0 35 0;
#X connect 3 0 52 0;
#X connect 3 0 53 0;
#X connect 4 0 5 0;
#X connect 5 0 7 0;
#X connect 5 0 7 1;
#X connect 5 0 16 0;
#X connect 5 1 44 0;
#X connect 5 1 53 0;
#X connect 6 0 3 0;
#X connect 8 0 32 0;
#X connect 9 0 11 0;
#X connect 11 0 19 0;
#X connect 12 0 5 0;
#X connect 12 0 21 0;
#X connect 12 0 47 0;
#X connect 14 0 15 0;
#X connect 15 1 12 0;
#X connect 21 0 32 3;
#X connect 21 0 35 3;
#X connect 22 0 23 0;
#X connect 23 0 29 0;
#X connect 32 0 33 0;
#X connect 32 2 27 0;
#X connect 32 3 22 0;
#X connect 35 0 34 0;
#X connect 35 2 17 0;
#X connect 35 3 9 0;
#X connect 43 0 0 0;
#X connect 44 0 32 2;
#X connect 44 0 35 2;
#X connect 47 0 32 1;
#X connect 47 0 35 1;
#X connect 49 0 12 0;
#X connect 53 0 4 0;
