#N canvas 0 267 1908 730 24;
#X obj -3812 -24008 formant_reader;
#X obj -3989 -24105 adc~;
#X obj -4459 -23846 bng 15 250 50 0 empty empty empty 17 7 0 10 -262144
-1 -1;
#X floatatom -3075 -23842 8 0 0 0 - - -;
#X text -3076 -23868 Variance;
#X obj -3235 -23815 expr sqrt($f1);
#X obj -4458 -23525 send~ recorded;
#X floatatom -3075 -23897 8 0 0 0 - - -;
#X text -3076 -23923 Mean;
#X floatatom -3075 -23787 8 0 0 0 - - -;
#X text -3076 -23813 Standard Deviation;
#X obj -3477 -24076 bng 15 250 50 0 empty empty empty 17 7 0 10 -262144
-1 -1;
#X floatatom -3662 -23842 8 0 0 0 - - -;
#X obj -3822 -23815 expr sqrt($f1);
#X text -3453 -23439 0;
#X text -3485 -23744 100%;
#N canvas 0 0 450 300 (subpatch) 0;
#X array Formant-2 10 float 5;
#A 0 0 0 0 0 0 0 0 0.555556 0.444444 0;
#X coords 0 1 9 0 400 300 1 0 0;
#X restore -3437 -23743 graph;
#X floatatom -3662 -23897 8 0 0 0 - - -;
#X text -3663 -23923 Mean;
#X floatatom -3662 -23787 8 0 0 0 - - -;
#X text -3329 -23771 Histogram;
#X text -3069 -23442 3000 Hz;
#X obj -4081 -23897 f1Histogram;
#X obj -4081 -23859 send Formant-1;
#X obj -3494 -23859 send Formant-2;
#X obj -3494 -23897 f2Histogram;
#X text -3663 -23868 Variance;
#X text -3663 -23813 Standard Deviation;
#X text -4040 -23439 0;
#X text -4072 -23744 100%;
#N canvas 0 0 450 300 (subpatch) 0;
#X array Formant-1 10 float 5;
#A 0 0 0.333333 0.333333 0.333333 0 0 0 0 0 0;
#X coords 0 1 9 0 400 300 1 0 0;
#X restore -4024 -23743 graph;
#X text -3916 -23771 Histogram;
#X text -3656 -23442 900 Hz;
#X obj -4184 -24106 receive~ recorded;
#X obj -3748 -24066 bng 15 250 50 0 empty empty empty 17 7 0 10 -262144
-1 -1;
#X obj -3877 -24068 bng 15 250 50 0 empty empty empty 17 7 0 10 -262144
-1 -1;
#N canvas 0 0 958 988 fileloader 0;
#X obj -1866 -23314 openpanel;
#X msg -1766 -23069 open \$1;
#X obj -1679 -23260 readsf~;
#X obj -1866 -23376 bng 15 250 50 0 empty empty empty 17 7 0 10 -262144
-1 -1;
#X obj -1635 -23131 dac~;
#X msg -1553 -23178 1;
#X obj -1519 -23357 bng 15 250 50 0 empty empty empty 17 7 0 10 -262144
-1 -1;
#X obj -1789 -23199 print;
#X symbolatom -1776 -23120 10 0 0 0 - - -;
#X text -1518 -23388 Click this play it;
#X obj -1950 -23402 inlet;
#X obj -1627 -23383 inlet;
#X obj -1643 -22918 outlet~;
#X obj -1467 -22921 outlet;
#X text -1631 -22957 Output signal | bang if started | bang if ended
;
#X obj -1253 -22924 outlet;
#X text -1879 -23406 Click this to choose a file;
#X connect 0 0 7 0;
#X connect 0 0 8 0;
#X connect 1 0 2 0;
#X connect 2 0 4 0;
#X connect 2 0 4 1;
#X connect 2 0 12 0;
#X connect 2 1 8 0;
#X connect 2 1 15 0;
#X connect 3 0 0 0;
#X connect 5 0 2 0;
#X connect 5 0 13 0;
#X connect 6 0 5 0;
#X connect 8 0 1 0;
#X connect 10 0 3 0;
#X connect 11 0 6 0;
#X restore -4459 -23627 pd fileloader;
#X obj -4183 -24040 multiplex~;
#X obj -4291 -24016 tgl 15 0 empty empty empty 17 7 0 10 -262144 -1
-1 0 1;
#X obj -4319 -23846 bng 15 250 50 0 empty empty empty 17 7 0 10 -262144
-1 -1;
#X text -3909 -24135 Click this to start;
#X text -3770 -24136 Click this to stop;
#X text -3521 -24135 Click this to restart;
#X text -4455 -24071 Click this to switch between recorded and live
audio;
#X text -4490 -23922 Click this to choose a file;
#X text -4350 -23922 Click this to analyse the file;
#X connect 0 0 22 0;
#X connect 0 1 25 0;
#X connect 1 0 37 1;
#X connect 2 0 36 0;
#X connect 3 0 5 0;
#X connect 5 0 9 0;
#X connect 11 0 22 3;
#X connect 11 0 25 3;
#X connect 12 0 13 0;
#X connect 13 0 19 0;
#X connect 22 0 23 0;
#X connect 22 2 17 0;
#X connect 22 3 12 0;
#X connect 25 0 24 0;
#X connect 25 2 7 0;
#X connect 25 3 3 0;
#X connect 33 0 37 0;
#X connect 34 0 22 2;
#X connect 34 0 25 2;
#X connect 35 0 22 1;
#X connect 35 0 25 1;
#X connect 36 0 6 0;
#X connect 36 1 11 0;
#X connect 36 1 35 0;
#X connect 36 2 34 0;
#X connect 37 0 0 0;
#X connect 38 0 37 0;
#X connect 38 0 34 0;
#X connect 39 0 36 1;
