#N canvas -8 -8 1920 997 24;
#X obj -5799 -3550 snapshot~;
#X floatatom -5713 -3429 8 0 0 0 - - -;
#X obj -5497 -3578 bng 15 250 50 0 empty empty empty 17 7 0 10 -262144
-1 -1;
#X obj -5814 -3608 sig~;
#X obj -5867 -3318 expr ($f1*$f2)+($f3*$f4);
#X msg -5931 -3538 1;
#X msg -5648 -3545 0;
#X obj -5898 -3482 expr abs($f1-1);
#X obj -5618 -3492 expr abs($f1-1);
#X obj -5814 -3657 inlet;
#X text -5747 -3654 Number to take snapshot of;
#X text -5599 -3423 Last snapshot;
#X obj -5853 -3228 outlet;
#X obj -5444 -3656 inlet;
#X obj -5271 -3645 inlet;
#X text -5381 -3653 Run;
#X text -5206 -3642 Take snapshot;
#X text -5666 -3256 Author: Jack Cheng Ding Han;
#X connect 0 0 1 0;
#X connect 1 0 4 2;
#X connect 2 0 0 0;
#X connect 2 0 6 0;
#X connect 3 0 0 0;
#X connect 4 0 12 0;
#X connect 5 0 4 1;
#X connect 5 0 7 0;
#X connect 6 0 4 1;
#X connect 6 0 8 0;
#X connect 7 0 4 3;
#X connect 8 0 4 3;
#X connect 9 0 3 0;
#X connect 9 0 4 0;
#X connect 13 0 5 0;
#X connect 14 0 2 0;
