#N canvas 936 104 368 155 10;
#X msg 115 35 \; pd dsp 1;
#X msg 219 35 \; pd dsp 0;
#X obj 115 7 bng 15 250 50 0 empty empty empty 17 7 0 10 -262144 -1
-1;
#X obj 219 7 bng 15 250 50 0 empty empty empty 17 7 0 10 -262144 -1
-1;
#X obj -40 30 adc~;
#X text -45 -9 LIVE VOICE ANALYSIS;
#X text 93 -10 Start Audio;
#X text 197 -11 Stop Audio;
#X obj -40 73 wsprobe~;
#X connect 2 0 0 0;
#X connect 3 0 1 0;
#X connect 4 0 8 0;
