#N canvas 455 233 1908 997 10;
#X obj 114 10 adc~;
#X obj 115 37 env~;
#X obj 116 164 vu 15 120 empty empty -1 -8 0 10 -66577 -1 1 0;
#X floatatom 115 67 5 0 0 0 - - -;
#X floatatom 115 128 5 0 0 0 - - -;
#X msg 12 59 \; pd dsp 1;
#X obj 12 27 bng 15 250 50 0 empty empty empty 17 7 0 10 -262144 -1
-1;
#X obj 13 129 bng 15 250 50 0 empty empty empty 17 7 0 10 -262144 -1
-1;
#X msg 13 161 \; pd dsp 0;
#X text 4 2 START;
#X text 8 107 STOP;
#X text 154 9 <= analogue-to-digital converter;
#X text 155 36 <= envelope follower;
#X text 156 66 <= RMS amplitude (dB);
#X obj 115 96 - 75;
#X text 157 127 <= scaled RMS amplitude (dB);
#X text 175 212 VU METER;
#X text 156 95 <= scale to 'volume units' (VU);
#X obj 368 245 select 1;
#X floatatom 388 218 5 0 0 0 - - -;
#X obj 318 391 timer;
#X obj 320 335 bng 15 250 50 0 empty empty empty 17 7 0 10 -262144
-1 -1;
#X floatatom 789 32 5 0 0 0 - - -;
#X text 826 31 <= frequency (Hz);
#N canvas 0 0 450 300 (subpatch) 0;
#X array Voiced-Histogram 25 float 5;
#A 0 0.0329204 0.113274 0.151858 0.145841 0.124602 0.0884956 0.0679646
0.0516814 0.0431858 0.0325664 0.0244248 0.0180531 0.0113274 0.00920354
0.0145133 0.00884956 0.00637168 0.00424779 0.00318584 0.00247788 0.00212389
0.00318584 0.00283186 0.0187611 0;
#X coords 0 1 24 0 200 140 1 0 0;
#X restore 1222 47 graph;
#X obj 688 141 average;
#X floatatom 688 200 5 0 0 0 - - -;
#X msg 908 95 clear;
#X msg 866 330 51 93 320 429 412 352 250 192 146 122 92 69 51 32 26
41 25 18 12 9 7 6 9 8 53;
#X msg 885 70 absolute;
#X msg 1129 71 relative;
#N canvas 0 0 450 300 show 0;
#X obj 41 39 inlet;
#X obj 186 36 inlet;
#X obj 41 124 outlet;
#X msg 186 76 set;
#X obj 41 59 list prepend set;
#X obj 41 83 list trim;
#X connect 0 0 4 0;
#X connect 1 0 3 0;
#X connect 3 0 2 0;
#X connect 4 0 5 0;
#X connect 5 0 2 0;
#X restore 866 299 pd show;
#X obj 794 164 hist 0 600 25;
#X obj 993 145 hist 0 600 25;
#X obj 322 174 > -12;
#X obj 1327 246 send Voiced-Histogram;
#X floatatom 787 397 5 0 0 0 - - -;
#X text 824 396 <= frequency (Hz);
#N canvas 0 0 450 300 (subpatch) 0;
#X array Unvoiced-Histogram 25 float 5;
#A 0 0.153631 0.113338 0.0905696 0.0758098 0.0672628 0.0611937 0.0542986
0.0469726 0.039108 0.0311714 0.0235222 0.0180277 0.0147957 0.0121382
0.0138979 0.0072901 0.00632048 0.00527903 0.00481218 0.0039503 0.00344753
0.00298068 0.00262156 0.0345831 0;
#X coords 0 1 24 0 200 140 1 0 0;
#X restore 1220 412 graph;
#X obj 686 506 average;
#X floatatom 686 565 5 0 0 0 - - -;
#X msg 990 441 clear;
#X msg 864 695 3146 4278 3156 2522 2111 1873 1704 1512 1308 1089 868
655 502 412 338 387 203 176 147 134 110 96 83 73 963;
#X msg 883 435 absolute;
#X msg 1127 436 relative;
#N canvas 0 0 450 300 show 0;
#X obj 41 39 inlet;
#X obj 186 36 inlet;
#X obj 41 124 outlet;
#X msg 186 76 set;
#X obj 41 59 list prepend set;
#X obj 41 83 list trim;
#X connect 0 0 4 0;
#X connect 1 0 3 0;
#X connect 3 0 2 0;
#X connect 4 0 5 0;
#X connect 5 0 2 0;
#X restore 864 664 pd show;
#X obj 792 529 hist 0 600 25;
#X obj 991 510 hist 0 600 25;
#X obj 1325 611 send Unvoiced-Histogram;
#X floatatom 307 467 5 0 0 0 - - -;
#X obj 502 724 multiplex;
#X obj 578 725 multiplex;
#X obj 135 735 tgl 15 0 empty empty Checked_is_voiced_unchecked_is_unvoiced
17 7 0 10 -262144 -1 -1 0 1;
#X obj 490 556 == 0;
#X obj 598 526 == 1;
#X obj 778 810 edge~;
#X obj 499 422 loadbang;
#X obj 246 302 vsl 15 128 0 127 0 0 empty empty empty 0 -9 0 10 -262144
-1 -1 4912 1;
#X floatatom 220 441 5 0 0 0 - - -;
#N canvas 119 189 450 300 voxdetect 0;
#X obj 150 156 voicing_detector~;
#X obj 150 99 inlet~;
#X obj 307 124 block~ 1024;
#X obj 264 95 inlet;
#X obj 220 209 outlet~;
#X obj 150 238 outlet;
#X text 81 195 1=voiced;
#X text 81 214 0=unvoiced;
#X text 262 76 threshold (0-100);
#X connect 0 0 5 0;
#X connect 1 0 0 0;
#X connect 1 0 4 0;
#X connect 3 0 0 1;
#X restore 79 327 pd voxdetect;
#X floatatom 139 514 5 0 0 0 - - -;
#X text 167 475 22 for less than 0dB;
#X obj 218 255 expr 1.7*$f1 + 47;
#X connect 0 0 1 0;
#X connect 0 0 59 0;
#X connect 1 0 3 0;
#X connect 3 0 14 0;
#X connect 4 0 2 0;
#X connect 4 0 34 0;
#X connect 4 0 62 0;
#X connect 6 0 5 0;
#X connect 7 0 8 0;
#X connect 14 0 4 0;
#X connect 18 0 20 1;
#X connect 18 1 21 0;
#X connect 19 0 18 0;
#X connect 20 0 49 0;
#X connect 21 0 20 0;
#X connect 22 0 29 0;
#X connect 22 0 25 0;
#X connect 22 0 30 0;
#X connect 22 0 32 0;
#X connect 22 0 33 0;
#X connect 25 0 26 0;
#X connect 26 0 50 1;
#X connect 27 0 32 0;
#X connect 27 0 33 0;
#X connect 29 0 32 0;
#X connect 30 0 33 0;
#X connect 31 0 28 0;
#X connect 32 0 31 0;
#X connect 33 0 35 0;
#X connect 34 0 19 0;
#X connect 36 0 43 0;
#X connect 36 0 39 0;
#X connect 36 0 44 0;
#X connect 36 0 46 0;
#X connect 36 0 47 0;
#X connect 39 0 40 0;
#X connect 40 0 51 1;
#X connect 41 0 46 0;
#X connect 41 0 47 0;
#X connect 43 0 46 0;
#X connect 44 0 47 0;
#X connect 45 0 42 0;
#X connect 46 0 45 0;
#X connect 47 0 48 0;
#X connect 49 0 50 0;
#X connect 49 0 51 0;
#X connect 50 0 22 0;
#X connect 51 0 36 0;
#X connect 52 0 53 0;
#X connect 52 0 54 0;
#X connect 53 0 50 2;
#X connect 54 0 51 2;
#X connect 56 0 52 0;
#X connect 57 0 58 0;
#X connect 57 0 59 1;
#X connect 59 0 60 0;
#X connect 60 0 52 0;
#X connect 62 0 57 0;
