#N canvas -8 -8 1920 997 10;
#X obj 114 10 adc~;
#X obj 115 37 env~;
#X obj 116 164 vu 15 120 empty empty -1 -8 0 10 -66577 -1 1 0;
#X floatatom 115 67 5 0 0 0 - - -;
#X floatatom 115 128 5 0 0 0 - - -;
#X msg 12 59 \; pd dsp 1;
#X obj 12 27 bng 15 250 50 0 empty empty empty 17 7 0 10 -262144 -1
-1;
#X obj 13 129 bng 15 250 50 0 empty empty empty 17 7 0 10 -262144 -1
-1;
#X msg 13 161 \; pd dsp 0;
#X text 4 2 START;
#X text 8 107 STOP;
#X text 154 9 <= analogue-to-digital converter;
#X text 155 36 <= envelope follower;
#X text 156 66 <= RMS amplitude (dB);
#X obj 115 96 - 75;
#X text 157 127 <= scaled RMS amplitude (dB);
#X text 175 212 VU METER;
#X text 156 95 <= scale to 'volume units' (VU);
#X obj 368 245 select 1;
#X floatatom 388 218 5 0 0 0 - - -;
#X obj 318 391 timer;
#X obj 320 335 bng 15 250 50 0 empty empty empty 17 7 0 10 -262144
-1 -1;
#X floatatom 789 32 5 0 0 0 - - -;
#X text 826 31 <= frequency (Hz);
#N canvas 0 0 450 300 (subpatch) 0;
#X array Voiced-Histogram 25 float 5;
#A 0 0.15784 0.108599 0.0885153 0.0749777 0.0599524 0.0495388 0.0440345
0.0364475 0.0306456 0.0264802 0.0227611 0.0187444 0.0156204 0.0130913
0.0159179 0.00892591 0.00758703 0.00669444 0.00580184 0.00535555 0.00505802
0.00505802 0.00446296 0.0697709 0;
#X coords 0 1 24 0 200 140 1 0 0;
#X restore 1222 47 graph;
#X obj 688 141 average;
#X floatatom 688 200 5 0 0 0 - - -;
#X msg 908 95 clear;
#X msg 866 330 794 1061 730 595 504 403 333 296 245 206 178 153 126
105 88 107 60 51 45 39 36 34 34 30 469;
#X msg 885 70 absolute;
#X msg 1129 71 relative;
#N canvas 0 0 450 300 show 0;
#X obj 41 39 inlet;
#X obj 186 36 inlet;
#X obj 41 124 outlet;
#X msg 186 76 set;
#X obj 41 59 list prepend set;
#X obj 41 83 list trim;
#X connect 0 0 4 0;
#X connect 1 0 3 0;
#X connect 3 0 2 0;
#X connect 4 0 5 0;
#X connect 5 0 2 0;
#X restore 866 299 pd show;
#X obj 794 164 hist 0 600 25;
#X obj 993 145 hist 0 600 25;
#X obj 322 174 > -12;
#X obj 1327 246 send Voiced-Histogram;
#X floatatom 787 397 5 0 0 0 - - -;
#X text 824 396 <= frequency (Hz);
#N canvas 0 0 450 300 (subpatch) 0;
#X array Unvoiced-Histogram 25 float 5;
#A 0 0.148148 0.148148 0.148148 0.148148 0.148148 0.111111 0.037037
0 0 0 0 0 0 0 0 0 0 0 0 0 0 0 0 0 0;
#X coords 0 1 24 0 200 140 1 0 0;
#X restore 1220 412 graph;
#X obj 686 506 average;
#X floatatom 686 565 5 0 0 0 - - -;
#X msg 990 441 clear;
#X msg 864 695 3 4 4 4 4 4 3 1 0 0 0 0 0 0 0 0 0 0 0 0 0 0 0 0 0;
#X msg 883 435 absolute;
#X msg 1127 436 relative;
#N canvas 0 0 450 300 show 0;
#X obj 41 39 inlet;
#X obj 186 36 inlet;
#X obj 41 124 outlet;
#X msg 186 76 set;
#X obj 41 59 list prepend set;
#X obj 41 83 list trim;
#X connect 0 0 4 0;
#X connect 1 0 3 0;
#X connect 3 0 2 0;
#X connect 4 0 5 0;
#X connect 5 0 2 0;
#X restore 864 664 pd show;
#X obj 792 529 hist 0 600 25;
#X obj 991 510 hist 0 600 25;
#X obj 1325 611 send Unvoiced-Histogram;
#X floatatom 307 467 5 0 0 0 - - -;
#X obj 502 724 multiplex;
#X obj 578 725 multiplex;
#X obj 135 735 tgl 15 0 empty empty Checked_is_voiced_unchecked_is_unvoiced
17 7 0 10 -262144 -1 -1 1 1;
#X obj 490 556 == 0;
#X obj 598 526 == 1;
#X obj 778 810 edge~;
#X connect 0 0 1 0;
#X connect 1 0 3 0;
#X connect 3 0 14 0;
#X connect 4 0 2 0;
#X connect 4 0 34 0;
#X connect 6 0 5 0;
#X connect 7 0 8 0;
#X connect 14 0 4 0;
#X connect 18 0 20 1;
#X connect 18 1 21 0;
#X connect 19 0 18 0;
#X connect 20 0 49 0;
#X connect 21 0 20 0;
#X connect 22 0 29 0;
#X connect 22 0 25 0;
#X connect 22 0 30 0;
#X connect 22 0 32 0;
#X connect 22 0 33 0;
#X connect 25 0 26 0;
#X connect 27 0 32 0;
#X connect 27 0 33 0;
#X connect 29 0 32 0;
#X connect 30 0 33 0;
#X connect 31 0 28 0;
#X connect 32 0 31 0;
#X connect 33 0 35 0;
#X connect 34 0 19 0;
#X connect 36 0 43 0;
#X connect 36 0 39 0;
#X connect 36 0 44 0;
#X connect 36 0 46 0;
#X connect 36 0 47 0;
#X connect 39 0 40 0;
#X connect 41 0 46 0;
#X connect 41 0 47 0;
#X connect 43 0 46 0;
#X connect 44 0 47 0;
#X connect 45 0 42 0;
#X connect 46 0 45 0;
#X connect 47 0 48 0;
#X connect 49 0 50 0;
#X connect 49 0 51 0;
#X connect 50 0 22 0;
#X connect 51 0 36 0;
#X connect 52 0 53 0;
#X connect 52 0 54 0;
#X connect 53 0 50 2;
#X connect 54 0 51 2;
