#N canvas 20 198 1908 1025 10;
#X floatatom -5641 -3727 5 0 0 0 - - -;
#X msg -5543 -3647 clear;
#X msg -5609 -3679 relative;
#X obj -5641 -3762 inlet;
#X obj -5641 -3440 outlet;
#X obj -5641 -3630 hist 0 900 10;
#X obj -5490 -3630 hist 0 900 10;
#X text -5604 -3763 Values;
#X obj -5543 -3762 inlet;
#X text -5182 -3763 Clear;
#X obj -5490 -3440 outlet;
#X text -5491 -3422 Data;
#X msg -5490 -3679 absolute;
#X obj -5475 -3598 makelist;
#X msg -5475 -3574 0 0 351 530 1030 1471 1407 859 388 158;
#X obj -5405 -3711 average;
#X obj -5405 -3440 outlet;
#X text -5406 -3422 Mean;
#X obj -5303 -3440 outlet;
#X text -5304 -3422 Variance;
#X obj -5220 -3613 list-map2;
#X obj -5152 -3613 *;
#X obj -5109 -3596 makelist;
#X msg -5109 -3553 0 0 2.4299e+007 1.58829e+007 7.11484e+006 69789.7
1.32079e+007 3.00024e+007 2.97468e+007 2.12679e+007;
#X msg -5195 -3711 45 135 225 315 405 495 585 675 765 855;
#X obj -5195 -3762 loadbang;
#X floatatom -5389 -3678 5 0 0 0 - - -;
#X text -5147 -3728 Midpoints x of classes 0 to 900;
#X text -5642 -3422 Graph;
#X obj -5195 -3679 list-map;
#X obj -5133 -3679 expr pow($f1-$f2 \, 2);
#X obj -5109 -3662 makelist;
#X msg -5109 -3635 205084 131669 74453.9 33438.7 8623.42 8.19331 7592.96
31377.7 71362.5 127547;
#X obj -5220 -3574 list-accum;
#X obj -5220 -3540 expr sqrt($f1)/10;
#X floatatom -5220 -3496 5 0 0 0 - - -;
#X text -5400 -3591 Statistical Frequencies f;
#X text -5087 -3576 f*(x-x̄)^2;
#X text -5026 -3657 (x-x̄)^2;
#X connect 0 0 2 0;
#X connect 0 0 5 0;
#X connect 0 0 12 0;
#X connect 0 0 15 0;
#X connect 0 0 6 0;
#X connect 0 0 24 0;
#X connect 1 0 5 0;
#X connect 1 0 6 0;
#X connect 2 0 5 0;
#X connect 3 0 0 0;
#X connect 5 0 4 0;
#X connect 6 0 10 0;
#X connect 6 0 13 0;
#X connect 6 0 20 0;
#X connect 8 0 1 0;
#X connect 12 0 6 0;
#X connect 13 0 14 0;
#X connect 15 0 26 0;
#X connect 15 0 30 1;
#X connect 15 0 16 0;
#X connect 20 0 22 0;
#X connect 20 0 33 0;
#X connect 20 1 21 0;
#X connect 21 0 20 2;
#X connect 22 0 23 0;
#X connect 24 0 29 0;
#X connect 25 0 24 0;
#X connect 29 0 31 0;
#X connect 29 0 20 1;
#X connect 29 1 30 0;
#X connect 30 0 29 1;
#X connect 31 0 32 0;
#X connect 33 0 34 0;
#X connect 34 0 35 0;
#X connect 34 0 18 0;
