#N canvas 953 0 958 988 10;
#X floatatom 103 -22121 5 0 0 0 - - -;
#X text 140 -22122 <= frequency (Hz);
#N canvas 0 0 450 300 (subpatch) 0;
#X array array3 10 float 3;
#A 0 11 17 47 95 156 135 178 0 0 0;
#X coords 0 100 10 0 200 140 1 0 0;
#X restore 271 -22098 graph;
#X obj 2 -22012 average;
#X floatatom 2 -21953 5 0 0 0 - - -;
#X msg 222 -22058 clear;
#X msg 199 -22083 absolute;
#X obj 108 -21988 send array3;
#X obj 102 -22144 inlet;
#X obj 104 -22012 hist 0 \$0 10;
#X obj 168 -21716 \$0;
#X floatatom 195 -21630 5 0 0 0 - - -;
#X obj 142 -21815 bng 15 250 50 0 empty empty empty 17 7 0 10 -262144
-1 -1;
#X connect 0 0 6 0;
#X connect 0 0 3 0;
#X connect 0 0 9 0;
#X connect 3 0 4 0;
#X connect 5 0 9 0;
#X connect 6 0 9 0;
#X connect 8 0 0 0;
#X connect 9 0 7 0;
#X connect 10 0 11 0;
#X connect 12 0 10 0;
