#N canvas -8 -8 1920 997 10;
#X floatatom -5641 -3727 5 0 0 0 - - -;
#X msg -5543 -3647 clear;
#X msg -5609 -3679 relative;
#X obj -5641 -3762 inlet;
#X obj -5641 -3440 outlet;
#X obj -5490 -3630 hist 0 900 10;
#X text -5604 -3763 Values;
#X obj -5543 -3762 inlet;
#X text -5182 -3763 Clear;
#X obj -5490 -3440 outlet;
#X text -5491 -3422 Data;
#X msg -5490 -3679 absolute;
#X obj -5475 -3598 makelist;
#X msg -5475 -3574 0 0 335 407 864 1370 1552 1275 786 731;
#X obj -5405 -3711 average;
#X obj -5405 -3440 outlet;
#X text -5406 -3422 Mean;
#X obj -5303 -3440 outlet;
#X text -5304 -3422 Variance;
#X obj -5220 -3613 list-map2;
#X obj -5152 -3613 *;
#X obj -5109 -3596 makelist;
#X msg -5106 -3547 0 0 1.71965e+007 7.5908e+006 1.87359e+006 2.58438e+006
2.76323e+007 6.36508e+007 7.72167e+007 1.18976e+008;
#X msg -5195 -3711 45 135 225 315 405 495 585 675 765 855;
#X obj -5195 -3762 loadbang;
#X floatatom -5389 -3678 5 0 0 0 - - -;
#X text -5147 -3728 Midpoints x of classes 0 to 900;
#X text -5642 -3422 Graph;
#X obj -5195 -3679 list-map;
#X obj -5133 -3679 expr pow($f1-$f2 \, 2);
#X obj -5109 -3662 makelist;
#X msg -5109 -3635 194405 123140 68075.9 29211.5 6547.02 82.5615 9818.1
35753.6 77889.2 136225;
#X obj -5220 -3574 list-accum;
#X obj -5220 -3540 expr sqrt($f1)/10;
#X floatatom -5220 -3496 5 0 0 0 - - -;
#X text -5400 -3591 Statistical Frequencies f;
#X text -5087 -3576 f*(x-x̄)^2;
#X text -5026 -3657 (x-x̄)^2;
#X obj -5641 -3630 hist 0 900 10;
#X obj -5474 -2945 makelist;
#X msg -5474 -2921 0 0 0.045765 0.0556011 0.118033 0.187158 0.212022
0.17418 0.107377 0.0998634;
#X obj -4611 -3337 bng 15 250 50 0 empty empty empty 17 7 0 10 -262144
-1 -1;
#X obj -4423 -3313 bng 15 250 50 0 empty empty empty 17 7 0 10 -262144
-1 -1;
#X obj -5567 -3229 freezelist;
#X obj -4771 -3011 discrete-snapshot;
#X obj -5410 -3197 freezelist;
#X obj -5044 -2929 makelist;
#X msg -5044 -2905 0 0 0 0 0 0 0 0 0 0;
#X floatatom -4766 -2928 5 0 0 0 - - -;
#X obj -4559 -3012 discrete-snapshot;
#X floatatom -4554 -2929 5 0 0 0 - - -;
#X connect 0 0 2 0;
#X connect 0 0 11 0;
#X connect 0 0 14 0;
#X connect 0 0 5 0;
#X connect 0 0 23 0;
#X connect 0 0 38 0;
#X connect 1 0 5 0;
#X connect 1 0 38 0;
#X connect 2 0 38 0;
#X connect 3 0 0 0;
#X connect 5 0 9 0;
#X connect 5 0 12 0;
#X connect 5 0 19 0;
#X connect 5 0 45 0;
#X connect 7 0 1 0;
#X connect 11 0 5 0;
#X connect 12 0 13 0;
#X connect 14 0 25 0;
#X connect 14 0 29 1;
#X connect 14 0 15 0;
#X connect 14 0 44 0;
#X connect 19 0 21 0;
#X connect 19 0 32 0;
#X connect 19 1 20 0;
#X connect 20 0 19 2;
#X connect 21 0 22 0;
#X connect 23 0 28 0;
#X connect 24 0 23 0;
#X connect 28 0 30 0;
#X connect 28 0 19 1;
#X connect 28 1 29 0;
#X connect 29 0 28 1;
#X connect 30 0 31 0;
#X connect 32 0 33 0;
#X connect 33 0 34 0;
#X connect 33 0 17 0;
#X connect 33 0 49 0;
#X connect 38 0 4 0;
#X connect 38 0 43 0;
#X connect 39 0 40 0;
#X connect 41 0 43 1;
#X connect 41 0 44 1;
#X connect 41 0 45 1;
#X connect 41 0 49 1;
#X connect 42 0 43 2;
#X connect 42 0 44 2;
#X connect 42 0 45 2;
#X connect 42 0 49 2;
#X connect 43 0 39 0;
#X connect 44 0 48 0;
#X connect 45 0 46 0;
#X connect 46 0 47 0;
#X connect 49 0 50 0;
