#N canvas 420 220 1908 997 10;
#X floatatom -6470 -4511 5 0 0 0 - - -;
#X msg -6162 -4431 clear;
#X msg -6438 -4463 relative;
#X obj -6470 -4546 inlet;
#X obj -6470 -4018 outlet;
#X text -6433 -4547 Values;
#X text -6011 -4547 Clear;
#X obj -6319 -4018 outlet;
#X text -6320 -4000 Data;
#X msg -6319 -4463 absolute;
#X obj -6304 -4382 makelist;
#X msg -6304 -4358 0 0 572 675 1411 2127 2412 1951 1202 2687;
#X obj -6234 -4495 average;
#X obj -6234 -4018 outlet;
#X text -6235 -4000 Mean;
#X obj -6049 -4018 outlet;
#X text -6050 -4000 Variance;
#X obj -6049 -4397 list-map2;
#X obj -5981 -4397 *;
#X obj -5938 -4380 makelist;
#X msg -5935 -4331 0 0 2.26307e+008 1.96102e+008 2.84459e+008 2.7413e+008
1.74535e+008 6.2512e+007 9.52104e+006 2687;
#X obj -6024 -4546 loadbang;
#X floatatom -6218 -4462 5 0 0 0 - - -;
#X text -6471 -4000 Graph;
#X obj -6024 -4463 list-map;
#X obj -5962 -4463 expr pow($f1-$f2 \, 2);
#X obj -5938 -4446 makelist;
#X msg -5938 -4419 2025 18225 50625 99225 164025 245025 342225 455625
585225 731025;
#X obj -6049 -4358 list-accum;
#X obj -6049 -4324 expr sqrt($f1)/10;
#X floatatom -6024 -4282 5 0 0 0 - - -;
#X text -6229 -4375 Statistical Frequencies f;
#X text -5916 -4360 f*(x-x̄)^2;
#X text -5855 -4441 (x-x̄)^2;
#X obj -6393 -4139 makelist;
#X msg -6393 -4115 0 0 0 0 0 0 0 0 0 0;
#X obj -6377 -4317 bng 15 250 50 0 empty empty empty 17 7 0 10 -262144
-1 -1;
#X obj -6255 -4316 bng 15 250 50 0 empty empty empty 17 7 0 10 -262144
-1 -1;
#X obj -6234 -4233 discrete-snapshot;
#X obj -6319 -4233 freezelist;
#X obj -6288 -4185 makelist;
#X msg -6288 -4161 0 0 337 408 868 1371 1565 1285 794 731;
#X floatatom -6217 -4199 5 0 0 0 - - -;
#X obj -6049 -4233 discrete-snapshot;
#X floatatom -6022 -4189 5 0 0 0 - - -;
#X obj -6470 -4233 freezelist;
#X obj -6377 -4546 inlet;
#X text -6340 -4547 Start;
#X obj -6255 -4546 inlet;
#X obj -6162 -4546 inlet;
#X text -6125 -4547 Stop;
#X text -6218 -4547 Stop;
#X msg -6024 -4495 150 450 750 1050 1350 1650 1950 2250 2550 285;
#X obj -6319 -4414 hist 0 3000 10;
#X obj -6470 -4414 hist 0 3000 10;
#X text -5976 -4512 Midpoints x of 10 classes from 0 to 3000;
#X connect 0 0 2 0;
#X connect 0 0 9 0;
#X connect 0 0 12 0;
#X connect 0 0 52 0;
#X connect 0 0 53 0;
#X connect 0 0 54 0;
#X connect 1 0 53 0;
#X connect 1 0 54 0;
#X connect 2 0 54 0;
#X connect 3 0 0 0;
#X connect 9 0 53 0;
#X connect 10 0 11 0;
#X connect 12 0 22 0;
#X connect 12 0 25 1;
#X connect 12 0 38 0;
#X connect 17 0 19 0;
#X connect 17 0 28 0;
#X connect 17 1 18 0;
#X connect 18 0 17 2;
#X connect 19 0 20 0;
#X connect 21 0 52 0;
#X connect 24 0 26 0;
#X connect 24 0 17 1;
#X connect 24 1 25 0;
#X connect 25 0 24 1;
#X connect 26 0 27 0;
#X connect 28 0 29 0;
#X connect 29 0 30 0;
#X connect 29 0 43 0;
#X connect 34 0 35 0;
#X connect 36 0 38 1;
#X connect 36 0 39 1;
#X connect 36 0 43 1;
#X connect 36 0 45 1;
#X connect 37 0 38 2;
#X connect 37 0 39 2;
#X connect 37 0 43 2;
#X connect 37 0 45 2;
#X connect 38 0 42 0;
#X connect 38 0 13 0;
#X connect 39 0 40 0;
#X connect 39 0 7 0;
#X connect 40 0 41 0;
#X connect 43 0 44 0;
#X connect 43 0 15 0;
#X connect 45 0 34 0;
#X connect 45 0 4 0;
#X connect 46 0 36 0;
#X connect 48 0 37 0;
#X connect 49 0 1 0;
#X connect 52 0 24 0;
#X connect 53 0 10 0;
#X connect 53 0 17 0;
#X connect 53 0 39 0;
#X connect 54 0 45 0;
