#N canvas 953 0 958 988 10;
#X floatatom -1105 -22792 5 0 0 0 - - -;
#X msg -1006 -22712 clear;
#X obj -1105 -22818 inlet;
#X obj -1105 -22695 hist 0 900 10;
#X obj -1006 -22818 inlet;
#X floatatom -1042 -22801 5 0 0 0 - - -;
#X msg -1073 -22744 relative;
#X obj -1023 -22678 outlet;
#X connect 0 0 6 0;
#X connect 0 0 3 0;
#X connect 1 0 3 0;
#X connect 2 0 0 0;
#X connect 3 0 7 0;
#X connect 4 0 1 0;
#X connect 4 0 5 0;
#X connect 6 0 3 0;
