#N canvas 302 65 958 988 10;
#X floatatom -4228 -1972 5 0 0 0 - - -;
#X text -4191 -1973 <= frequency (Hz);
#X msg -4130 -1892 clear;
#X msg -4196 -1924 relative;
#X obj -4228 -2007 inlet;
#X obj -4032 -2007 inlet;
#X obj -4228 -1847 outlet;
#X obj -4044 -1956 average;
#X floatatom -4030 -1925 5 0 0 0 - - -;
#X obj -4044 -1847 outlet;
#X obj -4228 -1875 hist 0 3000 10;
#X connect 0 0 3 0;
#X connect 0 0 7 0;
#X connect 0 0 10 0;
#X connect 2 0 10 0;
#X connect 3 0 10 0;
#X connect 4 0 0 0;
#X connect 5 0 2 0;
#X connect 7 0 8 0;
#X connect 7 0 9 0;
#X connect 10 0 6 0;
