#N canvas 423 413 1908 1025 10;
#X floatatom -5641 -3727 5 0 0 0 - - -;
#X msg -5543 -3647 clear;
#X msg -5609 -3679 relative;
#X obj -5641 -3762 inlet;
#X obj -5641 -3440 outlet;
#X text -5604 -3763 Values;
#X obj -5543 -3762 inlet;
#X text -5182 -3763 Clear;
#X obj -5490 -3440 outlet;
#X text -5491 -3422 Data;
#X msg -5490 -3679 absolute;
#X obj -5475 -3598 makelist;
#X msg -5475 -3574 1 1 2 6 29 74 65 45 38 517;
#X obj -5405 -3711 average;
#X obj -5405 -3440 outlet;
#X text -5406 -3422 Mean;
#X obj -5303 -3440 outlet;
#X text -5304 -3422 Variance;
#X obj -5220 -3613 list-map2;
#X obj -5152 -3613 *;
#X obj -5109 -3596 makelist;
#X msg -5109 -3553 3.28329e+007 2.94849e+007 5.26338e+007 1.39973e+008
5.95106e+008 1.32407e+009 1.00392e+009 5.92961e+008 4.21378e+008 1.61842e+010
;
#X obj -5195 -3762 loadbang;
#X floatatom -5389 -3678 5 0 0 0 - - -;
#X text -5147 -3728 Midpoints x of classes 0 to 900;
#X text -5642 -3422 Graph;
#X obj -5195 -3679 list-map;
#X obj -5133 -3679 expr pow($f1-$f2 \, 2);
#X obj -5109 -3662 makelist;
#X msg -5109 -3635 3.28329e+007 2.94849e+007 2.63169e+007 2.33289e+007
2.05209e+007 1.78929e+007 1.54449e+007 1.31769e+007 1.10889e+007 3.1304e+007
;
#X obj -5220 -3574 list-accum;
#X obj -5220 -3540 expr sqrt($f1)/10;
#X floatatom -5220 -3496 5 0 0 0 - - -;
#X text -5400 -3591 Statistical Frequencies f;
#X text -5087 -3576 f*(x-x̄)^2;
#X text -5026 -3657 (x-x̄)^2;
#X obj -5641 -3630 hist 0 3000 10;
#X obj -5490 -3630 hist 0 3000 10;
#X msg -5195 -3711 150 450 750 1050 1350 1650 1950 2250 2550 285;
#X connect 0 0 2 0;
#X connect 0 0 10 0;
#X connect 0 0 13 0;
#X connect 0 0 38 0;
#X connect 0 0 36 0;
#X connect 0 0 37 0;
#X connect 1 0 36 0;
#X connect 1 0 37 0;
#X connect 2 0 36 0;
#X connect 3 0 0 0;
#X connect 6 0 1 0;
#X connect 10 0 37 0;
#X connect 11 0 12 0;
#X connect 13 0 23 0;
#X connect 13 0 27 1;
#X connect 13 0 14 0;
#X connect 18 0 20 0;
#X connect 18 0 30 0;
#X connect 18 1 19 0;
#X connect 19 0 18 2;
#X connect 20 0 21 0;
#X connect 22 0 38 0;
#X connect 26 0 28 0;
#X connect 26 0 18 1;
#X connect 26 1 27 0;
#X connect 27 0 26 1;
#X connect 28 0 29 0;
#X connect 30 0 31 0;
#X connect 31 0 32 0;
#X connect 31 0 16 0;
#X connect 36 0 4 0;
#X connect 37 0 8 0;
#X connect 37 0 11 0;
#X connect 37 0 18 0;
#X connect 38 0 26 0;
