#N canvas 953 0 958 988 10;
#X floatatom -2833 -24026 5 0 0 0 - - -;
#X msg -2734 -23946 clear;
#X obj -2833 -24052 inlet;
#X obj -2734 -24052 inlet;
#X floatatom -2770 -24035 5 0 0 0 - - -;
#X msg -2801 -23978 relative;
#X obj -2751 -23912 outlet;
#X obj -2680 -24010 average;
#X obj -2680 -23912 outlet;
#X obj -2833 -23929 hist 0 5000 500;
#X connect 0 0 5 0;
#X connect 0 0 7 0;
#X connect 0 0 9 0;
#X connect 1 0 9 0;
#X connect 2 0 0 0;
#X connect 3 0 1 0;
#X connect 3 0 4 0;
#X connect 5 0 9 0;
#X connect 7 0 8 0;
#X connect 9 0 6 0;
