#N canvas 614 14 823 651 10;
#X obj 214 23 adc~;
#X floatatom 29 225 5 0 0 0 - - -, f 5;
#X floatatom 101 225 5 0 0 0 - - -, f 5;
#X obj 28 164 bp~ 300 50;
#X obj 100 164 bp~ 700 50;
#X floatatom 316 225 5 0 0 0 - - -, f 5;
#X floatatom 388 225 5 0 0 0 - - -, f 5;
#X obj 385 81 hip~ 800;
#X obj 386 111 lop~ 2400;
#X obj 315 164 bp~ 800 50;
#X obj 387 164 bp~ 2400 50;
#X floatatom 348 452 5 0 0 0 - - -, f 5;
#X floatatom 61 428 5 0 0 0 - - -, f 5;
#X obj 215 164 +~;
#X floatatom 215 225 5 0 0 0 - - -, f 5;
#X obj 215 298 - 60;
#X obj 215 195 env~ 8192;
#X obj 29 195 env~ 8192;
#X obj 101 195 env~ 8192;
#X obj 316 195 env~ 8192;
#X obj 388 195 env~ 8192;
#X obj 61 264 /;
#X floatatom 61 295 5 0 0 0 - - -, f 5;
#X obj 348 401 clip -4 4;
#X obj 61 396 clip -4 4;
#X obj 99 81 hip~ 300;
#X obj 100 111 lop~ 700;
#X obj 348 264 /;
#X floatatom 348 295 5 0 0 0 - - -, f 5;
#X obj 348 326 - 1;
#X obj 348 356 * 20;
#X obj 61 356 * 20;
#X obj 215 328 / 50;
#X text 34 24 FORMANT TRACKER;
#X text 14 96 F! range =>;
#X text 306 96 F2 range =>;
#X text 90 264 <= compute ratios between low and high =>;
#X text 190 2 Audio Input;
#X obj 61 326 - 1.05;
#X obj 61 456 / 8;
#X floatatom 61 496 5 0 0 0 - - -, f 5;
#X obj 61 520 * 717;
#X obj 61 546 + 137;
#X floatatom 61 577 5 0 0 0 - - -, f 5;
#X connect 0 0 7 0;
#X connect 0 0 25 0;
#X connect 1 0 21 0;
#X connect 2 0 21 1;
#X connect 3 0 17 0;
#X connect 4 0 18 0;
#X connect 5 0 27 0;
#X connect 6 0 27 1;
#X connect 7 0 8 0;
#X connect 8 0 9 0;
#X connect 8 0 10 0;
#X connect 8 0 13 1;
#X connect 9 0 19 0;
#X connect 10 0 20 0;
#X connect 12 0 39 0;
#X connect 13 0 16 0;
#X connect 14 0 15 0;
#X connect 15 0 32 0;
#X connect 16 0 14 0;
#X connect 17 0 1 0;
#X connect 18 0 2 0;
#X connect 19 0 5 0;
#X connect 20 0 6 0;
#X connect 21 0 22 0;
#X connect 22 0 38 0;
#X connect 23 0 11 0;
#X connect 24 0 12 0;
#X connect 25 0 26 0;
#X connect 26 0 3 0;
#X connect 26 0 4 0;
#X connect 26 0 13 0;
#X connect 27 0 28 0;
#X connect 28 0 29 0;
#X connect 29 0 30 0;
#X connect 30 0 23 0;
#X connect 31 0 24 0;
#X connect 38 0 31 0;
#X connect 39 0 40 0;
#X connect 40 0 41 0;
#X connect 41 0 42 0;
#X connect 42 0 43 0;
