#N canvas -7 0 963 988 10;
#X msg 1328 251 \; pd dsp 1;
#X msg 1400 251 \; pd dsp 0;
#X floatatom 29 225 5 0 0 0 - - -;
#X floatatom 100 226 5 0 0 0 - - -;
#X obj 30 147 bp~ 300 50;
#X obj 99 163 bp~ 700 50;
#X floatatom 234 228 5 0 0 0 - - -;
#X floatatom 280 225 5 0 0 0 - - -;
#X obj 186 130 bp~ 800 50;
#X obj 1243 452 gemwin;
#X msg 1258 321 create;
#X msg 1274 344 title FORMANT_TRACKER;
#X msg 1442 389 destroy;
#X msg 1243 297 1;
#X obj 706 584 gemhead;
#X obj 713 660 translateXYZ 0 0 0;
#X floatatom 795 617 5 0 0 0 - - -;
#X floatatom 857 622 5 0 0 0 - - -;
#X obj 1328 152 bng 15 250 50 0 empty empty empty 17 7 0 10 -262144
-1 -1;
#X obj 1243 203 loadbang;
#X obj 141 120 +~;
#X floatatom 167 226 5 0 0 0 - - -;
#X obj 167 269 - 60;
#X obj 900 660 clip 0 1;
#X floatatom 900 622 5 0 0 0 - - -;
#X obj 167 163 env~ 8192;
#X obj 29 195 env~ 8192;
#X obj 100 196 env~ 8192;
#X obj 29 298 /;
#X floatatom 29 327 5 0 0 0 - - -;
#X obj 857 584 clip -4 4;
#X obj 98 12 hip~ 300;
#X obj 99 61 lop~ 700;
#X obj 234 272 /;
#X floatatom 234 325 5 0 0 0 - - -;
#X obj 836 547 * 20;
#X obj 713 696 circle;
#X obj 167 307 / 50;
#X text 1316 127 Start;
#X text 1392 127 Stop;
#X obj 1400 152 bng 15 250 50 0 empty empty empty 17 7 0 10 -262144
-1 -1;
#X text 1290 451 <= initialis gem graphics window;
#X obj 733 520 - 1.05;
#X text 764 697 <= draw a circle in the appropriate location;
#X msg 1290 367 dimen 500 500;
#X msg 1306 390 color 0 0 0.25;
#X obj 1068 650 pix_draw;
#X obj 1068 626 pix_image vowel_quadrilateral.jpg;
#X obj 1243 263 t b b b b b;
#X obj 713 622 color 0 0 1;
#X text 1127 650 <= draw the background image;
#X floatatom 29 480 16 0 0 0 - - -;
#X obj 29 372 - 1.05;
#X floatatom 29 666 16 0 0 0 - - -;
#X floatatom 29 606 16 0 0 0 - - -;
#X obj 29 637 + 137;
#X obj 29 572 -;
#X obj 29 402 * 1792.5;
#X obj 29 513 swap 358.5;
#X obj 29 450 clip -358.5 358.5;
#X obj 99 -62 inlet~;
#X obj 789 584 clip -4 4;
#X obj 29 698 outlet;
#X obj 799 483 outlet;
#X text 34 24 comment;
#X text 191 14 comment;
#X text 14 96 comment;
#X text 307 109 comment;
#X obj 254 182 env~ 8192;
#X obj 234 195 env~ 8192;
#X obj 254 156 bp~ 2400 50;
#X obj 185 41 hip~ 800;
#X obj 187 72 lop~ 2400;
#X floatatom 229 473 5 0 0 0 - - -;
#X obj 226 827 outlet;
#X obj 226 608 -;
#X floatatom 226 794 5 0 0 0 - - -;
#X obj 226 636 / 8;
#X text 241 846 F2;
#X floatatom 226 664 5 0 0 0 - - -;
#X obj 226 765 + 654;
#X obj 234 374 - 1;
#X obj 234 408 * 20;
#X obj 227 527 + 4;
#X obj 226 701 * 1800;
#X obj 227 580 swap 7;
#X obj 378 531 bng 15 250 50 0 empty empty empty 17 7 0 10 -262144
-1 -1;
#X floatatom 259 735 5 0 0 0 - - -;
#X obj 466 601 / 450;
#X obj 338 983 expr (2*(877138875000*pow($i1 \, 3) - 960222026250*pow($i1
\, 2) + 19637075025*$i1 + 89219499824))/105230125;
#X floatatom 338 1022 5 0 0 0 - - -;
#X floatatom 617 815 32 0 0 0 - - -;
#X floatatom 319 753 5 0 0 0 - - -;
#X floatatom 617 892 16 0 0 0 - - -;
#X obj 457 933 expr (2*(877138875000*pow($i1 \, 3) - 960222026250*pow($i1
\, 2) + 19637075025*$i1 + 89219499824))/105230125;
#X floatatom 277 982 5 0 0 0 - - -;
#X msg 471 566 499;
#X floatatom 477 665 16 0 0 0 - - -;
#X obj 347 702 expr (2*(877138875000*pow($f1 \, 3) - 960222026250*pow($f1
\, 2) + 19637075025*$f1 + 89219499824))/105230125;
#X obj 617 787 expr pow($f1 \, 3);
#X obj 477 785 expr pow($f1 \, 2);
#X floatatom 408 816 32 0 0 0 - - -;
#X obj 617 851 expr 8335+(366265*$f1/841841);
#X connect 2 0 28 0;
#X connect 3 0 28 1;
#X connect 4 0 26 0;
#X connect 5 0 27 0;
#X connect 6 0 33 0;
#X connect 7 0 33 1;
#X connect 8 0 69 0;
#X connect 10 0 9 0;
#X connect 11 0 9 0;
#X connect 12 0 9 0;
#X connect 13 0 9 0;
#X connect 14 0 47 0;
#X connect 14 0 49 0;
#X connect 15 0 36 0;
#X connect 16 0 15 1;
#X connect 17 0 15 2;
#X connect 18 0 0 0;
#X connect 18 0 48 0;
#X connect 19 0 0 0;
#X connect 19 0 48 0;
#X connect 20 0 25 0;
#X connect 21 0 22 0;
#X connect 21 0 63 0;
#X connect 22 0 37 0;
#X connect 23 0 36 1;
#X connect 24 0 23 0;
#X connect 25 0 21 0;
#X connect 26 0 2 0;
#X connect 27 0 3 0;
#X connect 28 0 29 0;
#X connect 29 0 42 0;
#X connect 29 0 52 0;
#X connect 30 0 17 0;
#X connect 31 0 32 0;
#X connect 32 0 4 0;
#X connect 32 0 5 0;
#X connect 32 0 20 0;
#X connect 33 0 34 0;
#X connect 34 0 81 0;
#X connect 35 0 30 0;
#X connect 37 0 24 0;
#X connect 40 0 1 0;
#X connect 40 0 12 0;
#X connect 42 0 35 0;
#X connect 44 0 9 0;
#X connect 45 0 9 0;
#X connect 47 0 46 0;
#X connect 48 0 13 0;
#X connect 48 1 10 0;
#X connect 48 2 11 0;
#X connect 48 3 44 0;
#X connect 48 4 45 0;
#X connect 49 0 15 0;
#X connect 51 0 58 0;
#X connect 52 0 57 0;
#X connect 53 0 62 0;
#X connect 54 0 55 0;
#X connect 55 0 53 0;
#X connect 56 0 54 0;
#X connect 57 0 59 0;
#X connect 58 0 56 0;
#X connect 58 1 56 1;
#X connect 59 0 51 0;
#X connect 60 0 31 0;
#X connect 60 0 71 0;
#X connect 61 0 16 0;
#X connect 68 0 7 0;
#X connect 69 0 6 0;
#X connect 70 0 68 0;
#X connect 71 0 72 0;
#X connect 72 0 8 0;
#X connect 72 0 20 1;
#X connect 72 0 70 0;
#X connect 73 0 83 0;
#X connect 75 0 77 0;
#X connect 76 0 74 0;
#X connect 77 0 79 0;
#X connect 79 0 84 0;
#X connect 80 0 76 0;
#X connect 81 0 82 0;
#X connect 82 0 61 0;
#X connect 82 0 73 0;
#X connect 83 0 85 0;
#X connect 84 0 87 0;
#X connect 85 0 75 0;
#X connect 85 1 75 1;
#X connect 86 0 96 0;
#X connect 87 0 80 0;
#X connect 88 0 84 0;
#X connect 88 0 97 0;
#X connect 89 0 90 0;
#X connect 91 0 102 0;
#X connect 94 0 95 0;
#X connect 96 0 88 0;
#X connect 97 0 98 0;
#X connect 97 0 99 0;
#X connect 97 0 100 0;
#X connect 98 0 92 0;
#X connect 99 0 91 0;
#X connect 100 0 101 0;
#X connect 102 0 93 0;
