#N canvas 822 313 339 490 10;
#X obj 76 40 vsl 15 128 1 2 0 0 empty empty VQ 2 -9 0 10 -262144 -1
-1 6350 1;
#X obj 111 -53 loadbang;
#X obj 148 345 output~;
#X obj 25 40 vsl 15 128 50 300 0 0 empty empty Fx 2 -9 0 10 -262144
-1 -1 5080 1;
#X msg 76 -4 1.5;
#N canvas 1364 108 350 432 larynx 0;
#X obj 90 49 inlet;
#X obj 213 49 inlet;
#X obj 91 387 outlet~;
#X text 92 4 PITCH PULSE GENERATOR;
#X text 186 30 Voice Quality;
#X text 39 30 Fundamental Frequency;
#X text 86 406 Audio Out;
#X floatatom 213 81 0 0 100 0 - - -;
#X obj 91 251 -~ 0.5;
#X obj 90 353 cos~;
#X obj 90 150 sig~;
#X obj 91 183 phasor~;
#X floatatom 90 82 5 0 0 0 - - -;
#X obj 90 319 clip~ -0.5 0.5;
#X obj 90 217 sqrt~;
#X obj 91 285 *~;
#X obj 90 115 * -1;
#X text 141 182 <= basic ramp generator;
#X text 129 215 <= make non-linear;
#X text 123 352 <= index cosine wave;
#X connect 0 0 12 0;
#X connect 1 0 7 0;
#X connect 7 0 15 1;
#X connect 8 0 15 0;
#X connect 9 0 2 0;
#X connect 10 0 11 0;
#X connect 11 0 14 0;
#X connect 12 0 16 0;
#X connect 13 0 9 0;
#X connect 14 0 8 0;
#X connect 15 0 13 0;
#X connect 16 0 10 0;
#X restore 25 217 pd larynx;
#X floatatom 25 186 5 0 0 0 - - -;
#X floatatom 76 186 5 0 0 0 - - -;
#X floatatom 154 41 5 0 0 0 - - -;
#X floatatom 235 41 5 0 0 0 - - -;
#X msg 25 -4 150;
#X obj 162 283 +~;
#X text 155 -30 Voice 'Filter';
#X text 21 -30 Voice 'Source';
#X text 8 253 formant filters =>;
#N canvas 1124 222 538 632 2dinput 0;
#X msg 117 117 destroy;
#X msg 64 117 create;
#X msg 23 117 1;
#X obj 49 30 loadbang;
#X obj 49 78 t b b b b b;
#X msg 299 116 dimen 500 500;
#X obj 188 361 translateXYZ 0 0 0;
#X floatatom 287 256 5 0 0 0 - - -;
#X floatatom 348 256 5 0 0 0 - - -;
#X floatatom 287 324 5 0 0 0 - - -;
#X floatatom 348 324 5 0 0 0 - - -;
#X obj 287 302 - 4;
#X obj 331 202 gemmouse 8 8;
#X obj 348 302 -;
#X obj 348 277 swap 4;
#X obj 435 561 outlet;
#X obj 369 561 outlet;
#X obj 435 350 swap 8;
#X obj 435 378 -;
#X floatatom 435 528 5 0 0 0 - - -;
#X obj 435 406 / 8;
#X floatatom 369 528 5 0 0 0 - - -;
#X obj 369 406 / 8;
#X obj 64 168 gemwin 10;
#X text 82 1 GEM GRAPHICS;
#X obj 24 31 bng 15 250 50 0 empty empty empty 17 7 0 10 -262144 -1
-1;
#X text 129 168 <= create a graphics window (running at 10 fps);
#X text 17 257 create a graphics object =>;
#X text 38 361 move it around in 2D =>;
#X text 62 414 make it a circle =>;
#X text 168 202 get data from the mouse =>;
#X msg 394 115 color 0 0 0.25;
#X text 371 580 F1;
#X text 450 580 F2;
#X obj 188 414 circle 0.2;
#X text 72 483 convert mouse position to formant values =>;
#X obj 188 255 gemhead;
#X obj 14 490 pix_draw;
#X obj 188 306 color 1 0 0;
#X text 95 306 make it red =>;
#X floatatom 369 434 5 0 0 0 - - -;
#X floatatom 435 434 5 0 0 0 - - -;
#X obj 369 499 + 137;
#X obj 435 499 + 654;
#X obj 369 471 * 717;
#X obj 435 471 * 1742;
#X obj 14 452 pix_image vowel_quadrilateral.jpg;
#X msg 183 117 title Example 8-1;
#X obj 288 231 clip 0 8;
#X obj 348 231 clip 0 8;
#X obj 489 234 tgl 15 0 empty empty empty 17 7 0 10 -262144 -1 -1 0
1;
#X obj 489 562 outlet;
#X text 488 580 mouse;
#X obj 188 388 spigot;
#X connect 0 0 23 0;
#X connect 1 0 23 0;
#X connect 2 0 23 0;
#X connect 3 0 4 0;
#X connect 4 0 2 0;
#X connect 4 1 1 0;
#X connect 4 2 47 0;
#X connect 4 3 5 0;
#X connect 4 4 31 0;
#X connect 5 0 23 0;
#X connect 6 0 53 0;
#X connect 7 0 11 0;
#X connect 7 0 17 0;
#X connect 8 0 14 0;
#X connect 8 0 22 0;
#X connect 9 0 6 1;
#X connect 10 0 6 2;
#X connect 11 0 9 0;
#X connect 12 0 48 0;
#X connect 12 1 49 0;
#X connect 12 2 50 0;
#X connect 13 0 10 0;
#X connect 14 0 13 0;
#X connect 14 1 13 1;
#X connect 17 0 18 0;
#X connect 17 1 18 1;
#X connect 18 0 20 0;
#X connect 19 0 15 0;
#X connect 20 0 41 0;
#X connect 21 0 16 0;
#X connect 22 0 40 0;
#X connect 25 0 4 0;
#X connect 31 0 23 0;
#X connect 36 0 46 0;
#X connect 36 0 38 0;
#X connect 38 0 6 0;
#X connect 40 0 44 0;
#X connect 41 0 45 0;
#X connect 42 0 21 0;
#X connect 43 0 19 0;
#X connect 44 0 42 0;
#X connect 45 0 43 0;
#X connect 46 0 37 0;
#X connect 47 0 23 0;
#X connect 48 0 7 0;
#X connect 49 0 8 0;
#X connect 50 0 51 0;
#X connect 50 0 53 1;
#X connect 53 0 34 0;
#X restore 154 -4 pd 2dinput;
#X obj 154 102 sig~;
#X obj 235 101 sig~;
#X obj 187 102 / 50;
#X obj 267 101 / 80;
#X obj 124 253 vcf~ 125 80;
#X obj 204 253 vcf~ 550 80;
#X text 9 -73 Example 8-1;
#X obj 162 313 *~;
#X obj 311 42 tgl 15 0 empty empty empty 17 7 0 10 -262144 -1 -1 0
1;
#X connect 0 0 7 0;
#X connect 1 0 10 0;
#X connect 1 0 4 0;
#X connect 3 0 6 0;
#X connect 4 0 0 0;
#X connect 5 0 20 0;
#X connect 5 0 21 0;
#X connect 6 0 5 0;
#X connect 7 0 5 1;
#X connect 8 0 16 0;
#X connect 8 0 18 0;
#X connect 9 0 17 0;
#X connect 9 0 19 0;
#X connect 10 0 3 0;
#X connect 11 0 23 0;
#X connect 15 0 8 0;
#X connect 15 1 9 0;
#X connect 15 2 24 0;
#X connect 16 0 20 1;
#X connect 17 0 21 1;
#X connect 18 0 20 2;
#X connect 19 0 21 2;
#X connect 20 0 11 0;
#X connect 21 0 11 1;
#X connect 23 0 2 0;
#X connect 23 0 2 1;
#X connect 24 0 23 1;
