#N canvas 953 0 958 988 10;
#X obj 214 23 adc~;
#X floatatom 29 225 5 0 0 0 - - -;
#X floatatom 101 225 5 0 0 0 - - -;
#X obj 28 164 bp~ 300 50;
#X obj 100 164 bp~ 700 50;
#X floatatom 316 225 5 0 0 0 - - -;
#X floatatom 388 225 5 0 0 0 - - -;
#X obj 385 81 hip~ 800;
#X obj 386 111 lop~ 2400;
#X obj 315 164 bp~ 800 50;
#X obj 387 164 bp~ 2400 50;
#X floatatom 348 439 8 0 0 0 - - -;
#X floatatom 172 465 5 0 0 0 - - -;
#X obj 215 164 +~;
#X floatatom 215 225 5 0 0 0 - - -;
#X obj 215 298 - 60;
#X floatatom 215 465 5 0 0 0 - - -;
#X obj 215 195 env~ 8192;
#X obj 29 195 env~ 8192;
#X obj 101 195 env~ 8192;
#X obj 316 195 env~ 8192;
#X obj 388 195 env~ 8192;
#X obj 61 264 /;
#X floatatom 61 295 5 0 0 0 - - -;
#X obj 348 396 clip -4 4;
#X obj 172 427 clip -4 4;
#X obj 99 81 hip~ 300;
#X obj 100 111 lop~ 700;
#X obj 348 264 /;
#X floatatom 348 295 5 0 0 0 - - -;
#X obj 348 326 - 1;
#X obj 348 356 * 20;
#X obj 61 356 * 20;
#X obj 215 328 / 50;
#X text 34 24 FORMANT TRACKER;
#X text 14 96 F! range =>;
#X text 306 96 F2 range =>;
#X text 90 264 <= compute ratios between low and high =>;
#X text 190 2 Audio Input;
#X obj 61 326 - 1.05;
#X obj 348 732 outlet;
#X obj 348 521 swap 8;
#X obj 348 549 -;
#X floatatom 348 699 8 0 0 0 - - -;
#X obj 348 577 / 8;
#X text 363 751 F2;
#X floatatom 348 605 5 0 0 0 - - -;
#X obj 348 670 + 654;
#X obj 348 642 * 1742;
#X text 401 751 mouse;
#X msg 126 0;
#X obj 348 480 + 4;
#X connect 0 0 7 0;
#X connect 0 0 26 0;
#X connect 1 0 22 0;
#X connect 2 0 22 1;
#X connect 3 0 18 0;
#X connect 4 0 19 0;
#X connect 5 0 28 0;
#X connect 6 0 28 1;
#X connect 7 0 8 0;
#X connect 8 0 9 0;
#X connect 8 0 10 0;
#X connect 8 0 13 1;
#X connect 9 0 20 0;
#X connect 10 0 21 0;
#X connect 11 0 51 0;
#X connect 13 0 17 0;
#X connect 14 0 15 0;
#X connect 15 0 33 0;
#X connect 17 0 14 0;
#X connect 18 0 1 0;
#X connect 19 0 2 0;
#X connect 20 0 5 0;
#X connect 21 0 6 0;
#X connect 22 0 23 0;
#X connect 23 0 39 0;
#X connect 24 0 11 0;
#X connect 25 0 12 0;
#X connect 26 0 27 0;
#X connect 27 0 3 0;
#X connect 27 0 4 0;
#X connect 27 0 13 0;
#X connect 28 0 29 0;
#X connect 29 0 30 0;
#X connect 30 0 31 0;
#X connect 31 0 24 0;
#X connect 32 0 25 0;
#X connect 33 0 16 0;
#X connect 39 0 32 0;
#X connect 41 0 42 0;
#X connect 41 1 42 1;
#X connect 42 0 44 0;
#X connect 43 0 40 0;
#X connect 44 0 46 0;
#X connect 46 0 48 0;
#X connect 47 0 43 0;
#X connect 48 0 47 0;
#X connect 51 0 41 0;
