#N canvas 953 0 958 988 10;
#X msg 593 130 \; pd dsp 1;
#X msg 665 130 \; pd dsp 0;
#X floatatom 29 225 5 0 0 0 - - -;
#X floatatom 101 225 5 0 0 0 - - -;
#X obj 28 164 bp~ 300 50;
#X obj 100 164 bp~ 700 50;
#X floatatom 316 225 5 0 0 0 - - -;
#X floatatom 388 225 5 0 0 0 - - -;
#X obj 385 81 hip~ 800;
#X obj 386 111 lop~ 2400;
#X obj 315 164 bp~ 800 50;
#X obj 387 164 bp~ 2400 50;
#X obj 508 331 gemwin;
#X msg 523 200 create;
#X msg 539 223 title FORMANT_TRACKER;
#X msg 707 268 destroy;
#X msg 508 176 1;
#X obj 28 427 gemhead;
#X obj 28 503 translateXYZ 0 0 0;
#X floatatom 104 465 5 0 0 0 - - -;
#X floatatom 172 465 5 0 0 0 - - -;
#X obj 593 31 bng 15 250 50 0 empty empty empty 17 7 0 10 -262144 -1
-1;
#X obj 508 82 loadbang;
#X obj 215 164 +~;
#X floatatom 215 225 5 0 0 0 - - -;
#X obj 215 298 - 60;
#X obj 215 503 clip 0 1;
#X floatatom 215 465 5 0 0 0 - - -;
#X obj 215 195 env~ 8192;
#X obj 29 195 env~ 8192;
#X obj 101 195 env~ 8192;
#X obj 316 195 env~ 8192;
#X obj 388 195 env~ 8192;
#X obj 61 264 /;
#X floatatom 61 295 5 0 0 0 - - -;
#X obj 172 427 clip -4 4;
#X obj 99 81 hip~ 300;
#X obj 100 111 lop~ 700;
#X obj 348 264 /;
#X floatatom 348 295 5 0 0 0 - - -;
#X obj 348 326 - 1;
#X obj 348 356 * 20;
#X obj 61 356 * 20;
#X obj 28 539 circle;
#X obj 215 328 / 50;
#X text 34 24 FORMANT TRACKER;
#X text 14 96 F! range =>;
#X text 306 96 F2 range =>;
#X text 90 264 <= compute ratios between low and high =>;
#X text 190 2 Audio Input;
#X text 581 6 Start;
#X text 657 6 Stop;
#X obj 665 31 bng 15 250 50 0 empty empty empty 17 7 0 10 -262144 -1
-1;
#X text 555 330 <= initialis gem graphics window;
#X obj 61 326 - 1.05;
#X text 79 540 <= draw a circle in the appropriate location;
#X msg 555 246 dimen 500 500;
#X msg 571 269 color 0 0 0.25;
#X obj 383 493 pix_draw;
#X obj 383 469 pix_image vowel_quadrilateral.jpg;
#X obj 508 142 t b b b b b;
#X obj 28 465 color 0 0 1;
#X text 442 493 <= draw the background image;
#X obj 522 840 outlet;
#X obj 311 743 -;
#X floatatom 311 893 8 0 0 0 - - -;
#X obj 311 771 / 8;
#X text 518 876 F2;
#X floatatom 311 799 5 0 0 0 - - -;
#X obj 311 864 + 654;
#X obj 311 836 * 1742;
#X obj 311 674 + 4;
#X floatatom 64 698 16 0 0 0 - - -;
#X obj 63 584 - 1.05;
#X floatatom 73 888 16 0 0 0 - - -;
#X floatatom 73 828 16 0 0 0 - - -;
#X obj 73 859 + 137;
#X obj 73 765 -;
#X obj 63 614 * 1792.5;
#X obj 64 731 swap 358.5;
#X obj 63 662 clip -358.5 358.5;
#X obj 465 834 outlet;
#X text 469 890 F1;
#X obj 214 23 inlet~;
#X obj 465 694 avg~;
#X obj 520 693 avg~;
#X obj 465 619 inlet;
#X floatatom 464 791 5 0 0 0 - - -;
#X floatatom 529 793 5 0 0 0 - - -;
#X obj 589 535 select 0 1;
#X text 371 617 Start Analysis;
#X text 607 576 End Analysis;
#X obj 311 715 swap 8;
#X obj 104 427 clip -4 4;
#X obj 636 503 == 0;
#X obj 916 598 metro 100;
#X obj 916 639 int 0;
#X obj 962 639 + 1;
#X obj 1000 640 s slider;
#X obj 962 690 zexy/wrap 99;
#X floatatom 916 691 5 0 0 0 - - -;
#X obj 916 728 t b f;
#X floatatom 856 766 5 0 0 0 - - -;
#X floatatom 943 767 5 0 0 0 - - -;
#X obj 856 805 tabwrite array1;
#X msg 916 555 bang;
#X msg 967 555 stop;
#X msg 1008 555 reset;
#X msg 982 598 0;
#N canvas 0 0 450 300 (subpatch) 0;
#X array array1 100 float 5;
#A 0 0 0 0 0 0 0 0 0 0 0 0 0 0 0 0 0 0 0 0 0 0 0 0 0 0 0 0 0 0 0 0
0 0 0 0 0 0 0 0 0 0 0 0 0 0 0 0 0 0 0 0 0 0 0 0 0 0 0 0 0 0 0 0 0 0
0 0 0 0 0 0 0 0 0 0 0 0 0 0 0 0 0 0 0 0 0 0 0 0 0 0 0 0 0 0 0 0 0 0
0;
#X coords 0 1 99 -1 200 140 1;
#X restore 1074 684 graph;
#X connect 2 0 33 0;
#X connect 3 0 33 1;
#X connect 4 0 29 0;
#X connect 5 0 30 0;
#X connect 6 0 38 0;
#X connect 7 0 38 1;
#X connect 8 0 9 0;
#X connect 9 0 10 0;
#X connect 9 0 11 0;
#X connect 9 0 23 1;
#X connect 10 0 31 0;
#X connect 11 0 32 0;
#X connect 13 0 12 0;
#X connect 14 0 12 0;
#X connect 15 0 12 0;
#X connect 16 0 12 0;
#X connect 17 0 59 0;
#X connect 17 0 61 0;
#X connect 18 0 43 0;
#X connect 19 0 18 1;
#X connect 19 0 71 0;
#X connect 20 0 18 2;
#X connect 21 0 0 0;
#X connect 21 0 60 0;
#X connect 22 0 0 0;
#X connect 22 0 60 0;
#X connect 23 0 28 0;
#X connect 24 0 25 0;
#X connect 24 0 94 0;
#X connect 25 0 44 0;
#X connect 26 0 43 1;
#X connect 27 0 26 0;
#X connect 28 0 24 0;
#X connect 29 0 2 0;
#X connect 30 0 3 0;
#X connect 31 0 6 0;
#X connect 32 0 7 0;
#X connect 33 0 34 0;
#X connect 34 0 54 0;
#X connect 34 0 73 0;
#X connect 35 0 20 0;
#X connect 36 0 37 0;
#X connect 37 0 4 0;
#X connect 37 0 5 0;
#X connect 37 0 23 0;
#X connect 38 0 39 0;
#X connect 39 0 40 0;
#X connect 40 0 41 0;
#X connect 41 0 93 0;
#X connect 42 0 35 0;
#X connect 44 0 27 0;
#X connect 52 0 1 0;
#X connect 52 0 15 0;
#X connect 54 0 42 0;
#X connect 56 0 12 0;
#X connect 57 0 12 0;
#X connect 59 0 58 0;
#X connect 60 0 16 0;
#X connect 60 1 13 0;
#X connect 60 2 14 0;
#X connect 60 3 56 0;
#X connect 60 4 57 0;
#X connect 61 0 18 0;
#X connect 64 0 66 0;
#X connect 65 0 85 0;
#X connect 65 0 102 0;
#X connect 66 0 68 0;
#X connect 68 0 70 0;
#X connect 69 0 65 0;
#X connect 70 0 69 0;
#X connect 71 0 92 0;
#X connect 72 0 79 0;
#X connect 73 0 78 0;
#X connect 74 0 84 0;
#X connect 75 0 76 0;
#X connect 76 0 74 0;
#X connect 77 0 75 0;
#X connect 78 0 80 0;
#X connect 79 0 77 0;
#X connect 79 1 77 1;
#X connect 80 0 72 0;
#X connect 83 0 8 0;
#X connect 83 0 36 0;
#X connect 84 0 87 0;
#X connect 85 0 88 0;
#X connect 86 0 84 0;
#X connect 86 0 85 0;
#X connect 87 0 81 0;
#X connect 88 0 63 0;
#X connect 89 0 84 0;
#X connect 89 0 85 0;
#X connect 92 0 64 0;
#X connect 92 1 64 1;
#X connect 93 0 19 0;
#X connect 94 0 89 0;
#X connect 95 0 96 0;
#X connect 96 0 97 0;
#X connect 96 0 100 0;
#X connect 97 0 99 0;
#X connect 99 0 96 1;
#X connect 100 0 101 0;
#X connect 101 0 102 0;
#X connect 101 1 103 0;
#X connect 102 0 104 0;
#X connect 103 0 104 1;
#X connect 105 0 95 0;
#X connect 105 0 108 0;
#X connect 106 0 108 0;
#X connect 106 0 95 0;
#X connect 107 0 108 0;
#X connect 108 0 96 1;
#X connect 108 0 98 0;
