#N canvas -8 -8 1920 997 24;
#X obj -5280 -2907 makelist;
#X msg -5280 -2883 0 0 0.0456735 0.0607053 0.12276 0.195992 0.216805
0.16535 0.102525 0.0901908;
#X obj -5458 -3346 discrete-snapshot;
#X obj -5440 -3378 unpack f f f f f f f f f f;
#X obj -5440 -2959 pack f f f f f f f f f f;
#X obj -5043 -3416 bng 15 250 50 0 empty empty empty 17 7 0 10 -262144
-1 -1;
#X obj -5425 -3298 discrete-snapshot;
#X obj -5397 -3265 discrete-snapshot;
#X obj -5343 -3128 discrete-snapshot;
#X obj -5380 -3204 discrete-snapshot;
#X obj -5357 -3160 discrete-snapshot;
#X obj -5326 -3096 discrete-snapshot;
#X obj -5306 -3066 discrete-snapshot;
#X obj -5279 -3031 discrete-snapshot;
#X obj -5251 -2988 discrete-snapshot;
#X obj -4817 -3384 bng 15 250 50 0 empty empty empty 17 7 0 10 -262144
-1 -1;
#X obj -5455 -3429 inlet;
#X text -5400 -3421 List to freeze;
#X obj -5153 -2955 makelist;
#X msg -5153 -2931 0 0 0.0444568 0.0593378 0.121652 0.194754 0.214844
0.167969 0.104725 0.0922619;
#X obj -5389 -2744 outlet;
#X obj -5010 -3420 inlet;
#X text -4975 -3411 Run;
#X obj -4771 -3380 inlet;
#X text -4736 -3371 Pause;
#X text -4953 -3051 Author: Jack Cheng Ding Han;
#X connect 0 0 1 0;
#X connect 2 0 4 0;
#X connect 3 0 2 0;
#X connect 3 1 6 0;
#X connect 3 2 7 0;
#X connect 3 3 9 0;
#X connect 3 4 10 0;
#X connect 3 5 8 0;
#X connect 3 6 11 0;
#X connect 3 7 12 0;
#X connect 3 8 13 0;
#X connect 3 9 14 0;
#X connect 4 0 0 0;
#X connect 4 0 20 0;
#X connect 5 0 2 1;
#X connect 5 0 6 1;
#X connect 5 0 7 1;
#X connect 5 0 9 1;
#X connect 5 0 10 1;
#X connect 5 0 8 1;
#X connect 5 0 11 1;
#X connect 5 0 12 1;
#X connect 5 0 13 1;
#X connect 5 0 14 1;
#X connect 6 0 4 1;
#X connect 7 0 4 2;
#X connect 8 0 4 5;
#X connect 9 0 4 3;
#X connect 10 0 4 4;
#X connect 11 0 4 6;
#X connect 12 0 4 7;
#X connect 13 0 4 8;
#X connect 14 0 4 9;
#X connect 15 0 14 2;
#X connect 15 0 13 2;
#X connect 15 0 12 2;
#X connect 15 0 11 2;
#X connect 15 0 8 2;
#X connect 15 0 10 2;
#X connect 15 0 9 2;
#X connect 15 0 7 2;
#X connect 15 0 6 2;
#X connect 15 0 2 2;
#X connect 16 0 18 0;
#X connect 16 0 3 0;
#X connect 18 0 19 0;
#X connect 21 0 5 0;
#X connect 23 0 15 0;
