#N canvas 0 0 450 300 24;
#X obj -387 -78 inlet;
#X obj -251 -78 inlet;
#X obj -387 33 outlet;
#X msg -251 -41 set;
#X obj -387 -41 list prepend set;
#X obj -387 -4 list trim;
#X text -258 82 Author: Jack Cheng Ding Han;
#X connect 0 0 4 0;
#X connect 1 0 3 0;
#X connect 3 0 2 0;
#X connect 4 0 5 0;
#X connect 5 0 2 0;
