#N canvas 0 0 1908 997 24;
#X obj -1926 -37 env~;
#X obj -1909 177 vu 15 120 empty VU_METER 10 -8 0 10 -66577 -1 1 0
;
#X floatatom -1926 -7 5 0 0 1 <=_RMS_amplitude_(dB) - -;
#X floatatom -1926 54 5 0 0 1 scaled_RMS_amplitude_(dB) - -;
#X obj -1926 22 - 75;
#X obj -1673 171 select 1;
#X floatatom -1521 112 5 0 0 0 - - -;
#X obj -1723 317 timer;
#X obj -1665 241 bng 15 250 50 0 empty empty empty 17 7 0 10 -262144
-1 -1;
#X floatatom -1901 734 5 0 0 1 VOICED_DURATIONS - -;
#X obj -1719 100 > -12;
#X floatatom -1248 733 5 0 0 1 UNVOICED_DURATIONS - -;
#X floatatom -1734 393 5 0 0 0 - - -;
#X obj -1539 650 multiplex;
#X obj -1308 635 multiplex;
#X floatatom -1952 504 5 0 0 0 1_is_voiced_0_is_unvoiced - -;
#X obj -1969 357 zero-crossings;
#X floatatom -1979 407 5 0 0 0 Zero-crossing_count - -;
#X obj -1977 -140 inlet~;
#X obj -1929 459 < 160;
#X obj -1855 610 expr abs($i1 -1);
#X text -1522 434 Author: Folabi Nathan-Marsh;
#X obj -1911 795 outlet;
#X obj -1206 801 outlet;
#X connect 0 0 2 0;
#X connect 2 0 4 0;
#X connect 3 0 1 0;
#X connect 3 0 10 0;
#X connect 4 0 3 0;
#X connect 5 0 7 1;
#X connect 5 0 16 2;
#X connect 5 1 8 0;
#X connect 6 0 5 0;
#X connect 7 0 12 0;
#X connect 8 0 7 0;
#X connect 8 0 16 1;
#X connect 9 0 22 0;
#X connect 10 0 6 0;
#X connect 11 0 23 0;
#X connect 12 0 13 0;
#X connect 12 0 14 0;
#X connect 13 0 9 0;
#X connect 14 0 11 0;
#X connect 15 0 14 2;
#X connect 15 0 20 0;
#X connect 16 0 17 0;
#X connect 17 0 19 0;
#X connect 18 0 0 0;
#X connect 18 0 16 0;
#X connect 19 0 15 0;
#X connect 20 0 13 2;
