#N canvas -65 85 1908 781 10;
#X obj 115 37 env~;
#X obj 116 164 vu 15 120 empty empty -1 -8 0 10 -66577 -1 1 0;
#X floatatom 115 67 5 0 0 0 - - -;
#X floatatom 115 128 5 0 0 0 - - -;
#X text 154 9 <= analogue-to-digital converter;
#X text 155 36 <= envelope follower;
#X text 156 66 <= RMS amplitude (dB);
#X obj 115 96 - 75;
#X text 157 127 <= scaled RMS amplitude (dB);
#X text 175 212 VU METER;
#X text 156 95 <= scale to 'volume units' (VU);
#X obj 368 245 select 1;
#X floatatom 388 218 5 0 0 0 - - -;
#X obj 318 391 timer;
#X obj 376 315 bng 15 250 50 0 empty empty empty 17 7 0 10 -262144
-1 -1;
#X floatatom 789 32 5 0 0 0 - - -;
#X text 826 31 <= frequency (Hz);
#N canvas 0 0 450 300 (subpatch) 0;
#X array Voiced-Histogram 25 float 5;
#A 0 0.0785513 0.0522107 0.0475071 0.0437441 0.0399812 0.0338664 0.0296331
0.0258702 0.0235183 0.023048 0.0216369 0.0206961 0.0206961 0.019285
0.0272813 0.0164628 0.0159925 0.0145814 0.0136406 0.0126999 0.0108184
0.00940734 0.00940734 0.300564 0;
#X coords 0 1 24 0 200 140 1 0 0;
#X restore 1222 47 graph;
#X obj 688 141 average;
#X floatatom 688 200 5 0 0 0 - - -;
#X msg 908 95 clear;
#X msg 866 330 189 167 111 101 93 85 72 63 55 50 49 46 44 44 41 58
35 34 31 29 27 23 20 20 639;
#X msg 885 70 absolute;
#X msg 1129 71 relative;
#N canvas 0 0 450 300 show 0;
#X obj 41 39 inlet;
#X obj 186 36 inlet;
#X obj 41 124 outlet;
#X msg 186 76 set;
#X obj 41 59 list prepend set;
#X obj 41 83 list trim;
#X connect 0 0 4 0;
#X connect 1 0 3 0;
#X connect 3 0 2 0;
#X connect 4 0 5 0;
#X connect 5 0 2 0;
#X restore 866 299 pd show;
#X obj 794 164 hist 0 600 25;
#X obj 993 145 hist 0 600 25;
#X obj 322 174 > -12;
#X obj 1327 246 send Voiced-Histogram;
#X floatatom 787 397 5 0 0 0 - - -;
#X text 824 396 <= frequency (Hz);
#N canvas 0 0 450 300 (subpatch) 0;
#X array Unvoiced-Histogram 25 float 5;
#A 0 0.0753676 0.0698529 0.0606618 0.0496324 0.0441176 0.0422794 0.0386029
0.0349265 0.0330882 0.0294118 0.0257353 0.0220588 0.0220588 0.0202206
0.0275735 0.0183824 0.0147059 0.0147059 0.0147059 0.0147059 0.0147059
0.0147059 0.0147059 0.21875 0;
#X coords 0 1 24 0 200 140 1 0 0;
#X restore 1220 412 graph;
#X obj 686 506 average;
#X floatatom 686 565 5 0 0 0 - - -;
#X msg 991 441 clear;
#X msg 864 695 35 41 38 33 27 24 23 21 19 18 16 14 12 12 11 15 10 8
8 8 8 8 8 8 119;
#X msg 883 435 absolute;
#X msg 1127 436 relative;
#N canvas 0 0 450 300 show 0;
#X obj 41 39 inlet;
#X obj 186 36 inlet;
#X obj 41 124 outlet;
#X msg 186 76 set;
#X obj 41 59 list prepend set;
#X obj 41 83 list trim;
#X connect 0 0 4 0;
#X connect 1 0 3 0;
#X connect 3 0 2 0;
#X connect 4 0 5 0;
#X connect 5 0 2 0;
#X restore 864 664 pd show;
#X obj 792 529 hist 0 600 25;
#X obj 991 510 hist 0 600 25;
#X obj 1325 611 send Unvoiced-Histogram;
#X floatatom 307 467 5 0 0 0 - - -;
#X obj 502 724 multiplex;
#X obj 578 725 multiplex;
#X floatatom 89 578 5 0 0 0 - - -;
#X obj 72 431 zero-crossings;
#X floatatom 62 481 5 0 0 0 - - -;
#X obj 114 10 inlet~;
#X obj 112 533 < 160;
#X obj 163 711 expr abs($i1 -1);
#X connect 0 0 2 0;
#X connect 2 0 7 0;
#X connect 3 0 1 0;
#X connect 3 0 27 0;
#X connect 7 0 3 0;
#X connect 11 0 13 1;
#X connect 11 0 46 2;
#X connect 11 1 14 0;
#X connect 12 0 11 0;
#X connect 13 0 42 0;
#X connect 14 0 13 0;
#X connect 14 0 46 1;
#X connect 15 0 22 0;
#X connect 15 0 18 0;
#X connect 15 0 23 0;
#X connect 15 0 25 0;
#X connect 15 0 26 0;
#X connect 18 0 19 0;
#X connect 20 0 25 0;
#X connect 20 0 26 0;
#X connect 22 0 25 0;
#X connect 23 0 26 0;
#X connect 24 0 21 0;
#X connect 25 0 24 0;
#X connect 26 0 28 0;
#X connect 27 0 12 0;
#X connect 29 0 36 0;
#X connect 29 0 32 0;
#X connect 29 0 37 0;
#X connect 29 0 39 0;
#X connect 29 0 40 0;
#X connect 32 0 33 0;
#X connect 34 0 39 0;
#X connect 34 0 40 0;
#X connect 36 0 39 0;
#X connect 37 0 40 0;
#X connect 38 0 35 0;
#X connect 39 0 38 0;
#X connect 40 0 41 0;
#X connect 42 0 43 0;
#X connect 42 0 44 0;
#X connect 43 0 15 0;
#X connect 44 0 29 0;
#X connect 45 0 44 2;
#X connect 45 0 50 0;
#X connect 46 0 47 0;
#X connect 47 0 49 0;
#X connect 48 0 0 0;
#X connect 48 0 46 0;
#X connect 49 0 45 0;
#X connect 50 0 43 2;
