#N canvas 0 0 1908 997 10;
#X floatatom -7281 -6129 5 0 0 0 - - -;
#X msg -6973 -6049 clear;
#X msg -7249 -6081 relative;
#X obj -7281 -6164 inlet;
#X obj -7281 -5636 outlet;
#X text -7244 -6165 Values;
#X text -6822 -6165 Clear;
#X obj -7130 -5636 outlet;
#X text -7131 -5618 Data;
#X msg -7130 -6081 absolute;
#X obj -7115 -6000 makelist;
#X msg -7115 -5976 2 5 5 6 5 5 5 5 5 10;
#X obj -7045 -6113 average;
#X obj -7045 -5636 outlet;
#X text -7046 -5618 Mean;
#X obj -6860 -5636 outlet;
#X text -6861 -5618 Variance;
#X obj -6860 -6015 list-map2;
#X obj -6792 -6015 *;
#X obj -6749 -5998 makelist;
#X msg -6746 -5949 568357 1.11904e+006 853192 748010 429491 271641
149790 63939.9 14089.5 478.321;
#X obj -6835 -6164 loadbang;
#X floatatom -7029 -6080 5 0 0 0 - - -;
#X text -7282 -5618 Graph;
#X obj -6835 -6081 list-map;
#X obj -6773 -6081 expr pow($f1-$f2 \, 2);
#X obj -6749 -6064 makelist;
#X msg -6749 -6037 900 8100 22500 44100 72900 108900 152100 202500
260100 324900;
#X obj -6860 -5976 list-accum;
#X floatatom -6835 -5900 5 0 0 0 - - -;
#X text -7040 -5993 Statistical Frequencies f;
#X text -6727 -5978 f*(x-x̄)^2;
#X text -6666 -6059 (x-x̄)^2;
#X obj -7204 -5757 makelist;
#X msg -7204 -5733 0.0377358 0.0943396 0.0943396 0.113208 0.0943396
0.0943396 0.0943396 0.0943396 0.0943396 0.188679;
#X obj -7188 -5935 bng 15 250 50 0 empty empty empty 17 7 0 10 -262144
-1 -1;
#X obj -7066 -5934 bng 15 250 50 0 empty empty empty 17 7 0 10 -262144
-1 -1;
#X obj -7099 -5803 makelist;
#X msg -7099 -5779 2 5 5 6 5 5 5 5 5 10;
#X floatatom -7028 -5817 5 0 0 0 - - -;
#X floatatom -6833 -5807 5 0 0 0 - - -;
#X obj -7188 -6164 inlet;
#X text -7151 -6165 Start;
#X obj -7066 -6164 inlet;
#X obj -6973 -6164 inlet;
#X obj -7045 -5851 discrete-snapshot;
#X obj -6860 -5851 discrete-snapshot;
#X obj -7130 -5851 freezelist;
#X obj -7281 -5851 freezelist;
#X obj -6860 -5942 expr $f1/10;
#X obj -6748 -5688 multiplex;
#X text -6936 -6165 Clear;
#X msg -6693 -5819 0;
#X msg -7143 -5910 0;
#X msg -6604 -5789 1;
#X obj -6736 -5723 multiplex;
#X msg -6707 -5789 0;
#X obj -7281 -5695 multiplex;
#X msg -7256 -5799 0 0 0 0 0 0 0 0 0 0;
#X text -7029 -6165 Pause;
#X obj -7281 -6032 hist 0 600 10;
#X obj -7130 -6032 hist 0 600 10;
#X text -6787 -6130 Midpoints x of 10 classes from 0 to 600;
#X msg -6835 -6113 30 90 150 210 270 330 390 450 510 570;
#X obj -7007 -5670 / 1000;
#X obj -6830 -5668 / 1e+006;
#X connect 0 0 2 0;
#X connect 0 0 9 0;
#X connect 0 0 12 0;
#X connect 0 0 63 0;
#X connect 0 0 60 0;
#X connect 0 0 61 0;
#X connect 1 0 60 0;
#X connect 1 0 61 0;
#X connect 2 0 60 0;
#X connect 3 0 0 0;
#X connect 9 0 61 0;
#X connect 10 0 11 0;
#X connect 12 0 22 0;
#X connect 12 0 25 1;
#X connect 12 0 45 0;
#X connect 17 0 19 0;
#X connect 17 0 28 0;
#X connect 17 1 18 0;
#X connect 18 0 17 2;
#X connect 19 0 20 0;
#X connect 21 0 63 0;
#X connect 24 0 26 0;
#X connect 24 0 17 1;
#X connect 24 1 25 0;
#X connect 25 0 24 1;
#X connect 26 0 27 0;
#X connect 28 0 49 0;
#X connect 33 0 34 0;
#X connect 35 0 45 1;
#X connect 35 0 46 1;
#X connect 35 0 47 1;
#X connect 35 0 48 1;
#X connect 36 0 45 2;
#X connect 36 0 46 2;
#X connect 36 0 47 2;
#X connect 36 0 48 2;
#X connect 37 0 38 0;
#X connect 41 0 35 0;
#X connect 41 0 53 0;
#X connect 43 0 36 0;
#X connect 44 0 1 0;
#X connect 44 0 54 0;
#X connect 44 0 52 0;
#X connect 44 0 56 0;
#X connect 44 0 58 0;
#X connect 45 0 39 0;
#X connect 45 0 55 0;
#X connect 46 0 40 0;
#X connect 46 0 50 0;
#X connect 47 0 37 0;
#X connect 47 0 7 0;
#X connect 48 0 33 0;
#X connect 48 0 57 0;
#X connect 49 0 29 0;
#X connect 49 0 46 0;
#X connect 50 0 65 0;
#X connect 52 0 50 1;
#X connect 53 0 55 2;
#X connect 53 0 50 2;
#X connect 53 0 57 2;
#X connect 54 0 55 2;
#X connect 54 0 50 2;
#X connect 54 0 57 2;
#X connect 55 0 64 0;
#X connect 56 0 55 1;
#X connect 57 0 4 0;
#X connect 58 0 57 1;
#X connect 60 0 48 0;
#X connect 61 0 10 0;
#X connect 61 0 17 0;
#X connect 61 0 47 0;
#X connect 63 0 24 0;
#X connect 64 0 13 0;
#X connect 65 0 15 0;
