#N canvas 0 0 1908 997 24;
#X floatatom 117 311 5 0 0 0 - - -;
#N canvas 0 0 450 300 (subpatch) 0;
#X array Zero-Crossings 600 float 0;
#X coords 0 512 599 0 1200 400 1 0 0;
#X restore 573 501 graph;
#X obj 121 340 tabwrite Zero-Crossings;
#X obj 163 61 bng 15 250 50 0 empty empty empty 17 7 0 10 -262144 -1
-1;
#N canvas 1390 462 481 252 zerocross~ 0;
#X msg 106 126 clear;
#X obj 106 98 bang~;
#X obj 158 187 snapshot~;
#X obj 106 187 print~;
#X obj 106 162 bng 15 250 50 0 empty empty empty 17 7 0 10 -262144
-1 -1;
#X obj 159 12 inlet~;
#X obj 158 220 outlet;
#X obj 14 13 loadbang;
#X msg 14 40 set 1024 2 1;
#X obj 14 67 block~;
#X obj 158 40 *~ 1e+006;
#X obj 158 68 clip~ -1 1;
#X obj 157 97 fexpr~ -$x1*$x1[-1];
#X obj 157 125 clip~ 0 1;
#X obj 158 156 fexpr~ $x1+$y[-1];
#X text 222 39 <= multiply by a very large number;
#X text 228 68 <= clip to create a square wave;
#X text 278 96 <= multiply adjacent samples;
#X text 219 186 <= grab the count;
#X text 236 111 (each '1' indicates a zero-crossing);
#X text 217 125 <= remove all the '-1's;
#X text 269 156 <= count the remaining '1's;
#X connect 0 0 14 0;
#X connect 1 0 0 0;
#X connect 1 0 2 0;
#X connect 2 0 6 0;
#X connect 4 0 3 0;
#X connect 5 0 10 0;
#X connect 7 0 8 0;
#X connect 8 0 9 0;
#X connect 10 0 11 0;
#X connect 11 0 12 0;
#X connect 12 0 13 0;
#X connect 13 0 14 0;
#X connect 14 0 2 0;
#X connect 14 0 3 0;
#X restore 121 282 pd zerocross~;
#X floatatom 256 312 5 0 0 0 - - -;
#X obj 256 205 int;
#X obj 289 205 + 1;
#X obj 256 175 metro 20;
#X obj 136 245 tabwrite~ Waveform;
#X msg 342 110 stop;
#N canvas 0 0 450 300 (subpatch) 0;
#X array Waveform 529200 float 2;
#X coords 0 1 529200 -1 1200 400 1 0 0;
#X restore 576 40 graph;
#X obj 321 205 zexy/wrap 600;
#X obj 306 267 select 600;
#X obj 319 69 bng 15 250 50 0 empty empty empty 17 7 0 10 -262144 -1
-1;
#X obj 162 2 inlet;
#X obj 400 20 inlet;
#X obj 150 434 snapshot~;
#X obj 152 387 sig~;
#X floatatom 153 470 5 0 0 0 - - -;
#X text 185 27 Start Counting;
#X text 344 60 Pause Counting;
#X obj 12 95 inlet~;
#X obj 192 567 outlet;
#X text 188 644 Author: Folabi Nathan-Marsh;
#X text 7 52 Input Signal;
#X connect 0 0 2 0;
#X connect 0 0 18 0;
#X connect 3 0 8 0;
#X connect 3 0 9 0;
#X connect 4 0 0 0;
#X connect 5 0 2 1;
#X connect 6 0 7 0;
#X connect 6 0 5 0;
#X connect 7 0 12 0;
#X connect 7 0 13 0;
#X connect 8 0 6 0;
#X connect 10 0 8 0;
#X connect 12 0 6 1;
#X connect 13 0 14 0;
#X connect 14 0 10 0;
#X connect 14 0 17 0;
#X connect 15 0 3 0;
#X connect 16 0 14 0;
#X connect 17 0 19 0;
#X connect 17 0 23 0;
#X connect 18 0 17 0;
#X connect 22 0 4 0;
#X connect 22 0 9 0;
